<?xml version="1.0" encoding="UTF-8"?>
<svg version="1.1" xmlns="http://www.w3.org/2000/svg" width="2112" height="1152">
<path d="M0 0 C5.268592 4.24155002 9.68320435 8.87174683 13.16796875 14.6796875 C13.16796875 15.3396875 13.16796875 15.9996875 13.16796875 16.6796875 C13.82796875 16.6796875 14.48796875 16.6796875 15.16796875 16.6796875 C19.99057071 27.4720152 23.35362587 38.75720387 19.2265625 50.31640625 C15.83807215 57.79792455 11.40114555 62.37894682 3.98046875 65.8671875 C-4.24557666 68.87429171 -13.19482509 69.55652582 -21.83203125 70.6796875 C-44.62701557 73.6652835 -65.6272638 78.87540841 -86.89453125 87.7421875 C-87.65548096 88.05833008 -88.41643066 88.37447266 -89.20043945 88.70019531 C-99.75746468 93.2092741 -109.29635257 99.34566837 -118.83203125 105.6796875 C-119.74984375 106.28425781 -120.66765625 106.88882813 -121.61328125 107.51171875 C-134.10727528 116.14838029 -145.96005092 127.51884641 -155.5 139.32421875 C-155.93957031 139.77152344 -156.37914062 140.21882812 -156.83203125 140.6796875 C-157.49203125 140.6796875 -158.15203125 140.6796875 -158.83203125 140.6796875 C-159.06664062 141.36417969 -159.30125 142.04867187 -159.54296875 142.75390625 C-161.10875748 146.30777219 -163.212556 149.34641516 -165.45703125 152.4921875 C-166.08738281 153.3884082 -166.08738281 153.3884082 -166.73046875 154.30273438 C-167.75982853 155.76489315 -168.79531355 157.22273649 -169.83203125 158.6796875 C-169.17203125 158.6796875 -168.51203125 158.6796875 -167.83203125 158.6796875 C-167.57421875 158.10734375 -167.31640625 157.535 -167.05078125 156.9453125 C-165.71837183 154.46839755 -164.18147007 152.5455709 -162.33203125 150.4296875 C-161.72359375 149.72328125 -161.11515625 149.016875 -160.48828125 148.2890625 C-158.83203125 146.6796875 -158.83203125 146.6796875 -156.83203125 146.6796875 C-156.17203125 145.3596875 -155.51203125 144.0396875 -154.83203125 142.6796875 C-154.17203125 142.6796875 -153.51203125 142.6796875 -152.83203125 142.6796875 C-152.83203125 142.0196875 -152.83203125 141.3596875 -152.83203125 140.6796875 C-150.57541796 138.86537041 -148.31449906 137.16650629 -145.95703125 135.4921875 C-145.2702832 134.99823486 -144.58353516 134.50428223 -143.87597656 133.99536133 C-142.49595424 133.00466316 -141.11381316 132.01690921 -139.72949219 131.03222656 C-138.14396541 129.90203892 -136.56872479 128.75743898 -134.99609375 127.609375 C-129.20229408 123.42808915 -123.17842753 119.95376766 -116.83203125 116.6796875 C-116.043125 116.27105469 -115.25421875 115.86242187 -114.44140625 115.44140625 C-111.91822926 114.15893053 -109.37733308 112.91764635 -106.83203125 111.6796875 C-105.86136719 111.19113281 -104.89070312 110.70257813 -103.890625 110.19921875 C-66.66586079 92.03974513 -27.69632392 83.43758918 13.66796875 83.4921875 C14.51212341 83.49279175 15.35627808 83.493396 16.22601318 83.49401855 C41.08798966 83.5423549 64.22513262 86.93410004 88.16796875 93.6796875 C89.90433594 94.12248047 89.90433594 94.12248047 91.67578125 94.57421875 C100.76135866 96.96248574 108.7939673 100.52464861 117.16796875 104.6796875 C118.17472656 105.15277344 119.18148438 105.62585938 120.21875 106.11328125 C144.00966366 117.47754718 170.43144263 135.60232362 184.16796875 158.6796875 C184.16796875 159.3396875 184.16796875 159.9996875 184.16796875 160.6796875 C184.82796875 160.6796875 185.48796875 160.6796875 186.16796875 160.6796875 C188.85963666 164.45529735 190.98145079 168.59620021 193.16796875 172.6796875 C193.49635742 173.28490234 193.82474609 173.89011719 194.16308594 174.51367188 C213.01953849 209.86259468 215.84476391 251.53490087 204.43359375 289.56640625 C204.01225873 290.93766603 203.59040204 292.30876566 203.16796875 293.6796875 C202.7915625 294.94425781 202.41515625 296.20882813 202.02734375 297.51171875 C200.58017503 302.32301474 199.08877879 307.03420418 197.16796875 311.6796875 C196.50796875 311.6796875 195.84796875 311.6796875 195.16796875 311.6796875 C195.10480469 312.23914063 195.04164063 312.79859375 194.9765625 313.375 C193.71106509 321.66067775 190.09595179 328.39086336 186.16796875 335.6796875 C185.50796875 335.6796875 184.84796875 335.6796875 184.16796875 335.6796875 C184.07257813 336.36675781 183.9771875 337.05382812 183.87890625 337.76171875 C183.02287258 341.27521959 181.51659988 344.22014357 179.79296875 347.3671875 C179.44355225 348.01292725 179.09413574 348.65866699 178.73413086 349.32397461 C174.59514208 356.87154239 170.09521159 364.19966575 165.53173828 371.49609375 C164.20226453 373.62477496 162.8859641 375.76119544 161.5703125 377.8984375 C160.77048702 379.18028436 159.96975595 380.46156677 159.16796875 381.7421875 C158.80646729 382.33201416 158.44496582 382.92184082 158.07250977 383.52954102 C155.51240714 387.5648747 155.51240714 387.5648747 152.16796875 388.6796875 C151.08893645 391.02499423 151.08893645 391.02499423 150.16796875 393.6796875 C146.5244984 400.01096384 141.88959527 405.60872519 137.21875 411.19921875 C135.1754286 413.60752839 135.1754286 413.60752839 133.5234375 416.00390625 C133.07613281 416.55691406 132.62882812 417.10992188 132.16796875 417.6796875 C131.50796875 417.6796875 130.84796875 417.6796875 130.16796875 417.6796875 C129.89597656 418.26878906 129.62398437 418.85789062 129.34375 419.46484375 C125.29782419 427.08623889 117.96593125 433.11108685 111.42578125 438.54296875 C109.42018944 440.44099422 107.6992182 442.37678227 105.91796875 444.48046875 C102.30624452 448.6588418 98.34638238 452.10968332 94.04296875 455.5546875 C93.30014648 456.15692139 92.55732422 456.75915527 91.79199219 457.37963867 C89.591851 459.15643942 87.38249089 460.92085571 85.16796875 462.6796875 C84.56049805 463.1629248 83.95302734 463.64616211 83.32714844 464.14404297 C63.98720696 479.45251303 43.34457685 491.95558811 21.16796875 502.6796875 C20.24685303 503.13045654 20.24685303 503.13045654 19.30712891 503.59033203 C-13.67399429 519.55066482 -58.58318994 531.68101009 -94.75390625 520.80078125 C-105.3143144 516.88162357 -114.08324735 509.73262927 -121.83203125 501.6796875 C-121.83203125 501.0196875 -121.83203125 500.3596875 -121.83203125 499.6796875 C-122.49203125 499.6796875 -123.15203125 499.6796875 -123.83203125 499.6796875 C-124.9828581 497.43211966 -126.12779983 495.18187002 -127.26953125 492.9296875 C-127.59501953 492.29546875 -127.92050781 491.66125 -128.25585938 491.0078125 C-132.60951357 482.39027019 -133.12613091 473.22888106 -131.25390625 463.75390625 C-128.62132378 456.05958565 -123.38095369 451.0503495 -116.24609375 447.33203125 C-105.73011359 443.22284573 -93.93379843 443.52521513 -82.796875 443.76953125 C-71.20354103 444.01141061 -61.01880905 442.72304693 -49.83203125 439.6796875 C-48.65511719 439.37160156 -47.47820312 439.06351563 -46.265625 438.74609375 C-43.77943435 438.08247453 -41.3028343 437.39807077 -38.83203125 436.6796875 C-39.83363281 436.23238281 -40.83523438 435.78507812 -41.8671875 435.32421875 C-55.689285 429.06983674 -55.689285 429.06983674 -60.83203125 424.6796875 C-60.83203125 424.0196875 -60.83203125 423.3596875 -60.83203125 422.6796875 C-61.43015625 422.4940625 -62.02828125 422.3084375 -62.64453125 422.1171875 C-65.85973279 420.00434077 -66.99545627 417.31398866 -67.83203125 413.6796875 C-68.02866059 409.1874633 -67.68651722 405.81900212 -64.95703125 402.1796875 C-59.84212064 398.56916237 -53.82587362 399.28788817 -47.83203125 399.6796875 C-43.27694148 400.46598276 -38.81835945 401.57256185 -34.33203125 402.6796875 C-17.01159705 406.64315787 0.42581138 408.99462969 16.54296875 399.7421875 C17.40921875 399.0615625 18.27546875 398.3809375 19.16796875 397.6796875 C25.90149311 392.6796875 25.90149311 392.6796875 28.16796875 392.6796875 C28.16796875 392.0196875 28.16796875 391.3596875 28.16796875 390.6796875 C29.69921875 389.171875 29.69921875 389.171875 31.66796875 387.5546875 C32.31765625 387.01585937 32.96734375 386.47703125 33.63671875 385.921875 C34.14203125 385.51195312 34.64734375 385.10203125 35.16796875 384.6796875 C32.03043334 384.49846437 32.03043334 384.49846437 28.79296875 385.9921875 C5.96108075 394.60026017 -17.72128365 390.81135264 -40.76953125 384.9296875 C-50.80678802 382.56798002 -61.18342609 382.0393467 -70.51953125 386.9296875 C-76.36407972 391.35258904 -79.58790109 398.58814561 -80.83203125 405.6796875 C-81.38217276 412.2313727 -80.92128841 417.67711391 -78.48828125 423.8046875 C-77.83203125 425.6796875 -77.83203125 425.6796875 -77.83203125 428.6796875 C-139.8450305 436.5632924 -208.09168721 428.56859105 -259.17578125 390.0390625 C-260.83203125 388.6796875 -260.83203125 388.6796875 -262.23828125 387.1953125 C-263.81657801 385.56775075 -263.81657801 385.56775075 -266.0390625 384.453125 C-270.04483081 381.90960218 -273.18298908 378.65741077 -276.51953125 375.3046875 C-277.19564453 374.6446875 -277.87175781 373.9846875 -278.56835938 373.3046875 C-282.00770509 369.86876402 -284.13325314 367.28228828 -285.83203125 362.6796875 C-287.14558742 361.97485248 -288.48091377 361.30953174 -289.83203125 360.6796875 C-291.53515625 358.5859375 -291.53515625 358.5859375 -293.08203125 356.1796875 C-293.86320312 354.98859375 -293.86320312 354.98859375 -294.66015625 353.7734375 C-295.83203125 351.6796875 -295.83203125 351.6796875 -295.83203125 349.6796875 C-296.49203125 349.6796875 -297.15203125 349.6796875 -297.83203125 349.6796875 C-299.34562845 346.93696349 -300.84043834 344.18443117 -302.33203125 341.4296875 C-302.76128906 340.65238281 -303.19054687 339.87507813 -303.6328125 339.07421875 C-304.24189453 337.94306641 -304.24189453 337.94306641 -304.86328125 336.7890625 C-305.24033203 336.09780273 -305.61738281 335.40654297 -306.00585938 334.69433594 C-306.83203125 332.6796875 -306.83203125 332.6796875 -306.83203125 328.6796875 C-307.49203125 328.6796875 -308.15203125 328.6796875 -308.83203125 328.6796875 C-313.65260912 317.0046441 -316.81834501 306.04046366 -318.32421875 293.484375 C-318.41085102 289.89841997 -318.41085102 289.89841997 -319.83203125 288.6796875 C-320.90701985 282.19190417 -320.98269167 275.80697883 -320.95703125 269.2421875 C-320.96283203 267.76395508 -320.96283203 267.76395508 -320.96875 266.25585938 C-320.94693254 249.79458879 -320.94693254 249.79458879 -318.83203125 247.6796875 C-318.53529877 245.61963828 -318.24437573 243.5585943 -317.98193359 241.49389648 C-316.34227893 228.72903071 -312.89099588 216.85658139 -308.83203125 204.6796875 C-308.17203125 204.6796875 -307.51203125 204.6796875 -306.83203125 204.6796875 C-306.75082031 203.72964844 -306.66960937 202.77960938 -306.5859375 201.80078125 C-305.86811167 196.77600046 -303.80144973 192.35699372 -301.76953125 187.7421875 C-301.39248047 186.86755859 -301.01542969 185.99292969 -300.62695312 185.09179688 C-299.70280157 182.95104074 -298.77105615 180.81395103 -297.83203125 178.6796875 C-297.17203125 178.6796875 -296.51203125 178.6796875 -295.83203125 178.6796875 C-295.72375 177.97457031 -295.61546875 177.26945313 -295.50390625 176.54296875 C-293.76506709 169.13268325 -289.32723278 162.17395737 -285.19140625 155.8359375 C-282.76723478 151.99069999 -280.59787821 147.99189225 -278.3828125 144.0234375 C-277.61517578 142.86328125 -277.61517578 142.86328125 -276.83203125 141.6796875 C-276.17203125 141.6796875 -275.51203125 141.6796875 -274.83203125 141.6796875 C-274.74824219 140.98488281 -274.66445313 140.29007813 -274.578125 139.57421875 C-273.64414604 135.95077159 -271.98498407 133.46317459 -269.89453125 130.3671875 C-269.18425781 129.29855469 -268.47398437 128.22992188 -267.7421875 127.12890625 C-267.11183594 126.32066406 -266.48148437 125.51242187 -265.83203125 124.6796875 C-265.17203125 124.6796875 -264.51203125 124.6796875 -263.83203125 124.6796875 C-263.55359375 123.473125 -263.55359375 123.473125 -263.26953125 122.2421875 C-261.67214862 118.28345664 -259.63934103 115.61236182 -256.96875 112.3203125 C-255.37459876 110.35020969 -253.82070597 108.36926893 -252.2890625 106.3515625 C-251.85142578 105.77543213 -251.41378906 105.19930176 -250.96289062 104.60571289 C-250.10208527 103.47056567 -249.24264737 102.33437982 -248.38476562 101.19702148 C-246.04310666 98.1289799 -243.59151288 95.37200122 -240.83203125 92.6796875 C-239.00495326 90.56736948 -237.20896997 88.43200719 -235.41796875 86.2890625 C-234.63292969 85.49242187 -234.63292969 85.49242187 -233.83203125 84.6796875 C-233.17203125 84.6796875 -232.51203125 84.6796875 -231.83203125 84.6796875 C-231.55617188 84.08800781 -231.2803125 83.49632812 -230.99609375 82.88671875 C-227.9769792 77.16255861 -223.09564749 72.89222896 -218.22265625 68.75390625 C-215.82704804 66.67536383 -213.50769287 64.53323534 -211.19165039 62.3671875 C-201.92741937 53.71029181 -192.32622016 45.86759614 -181.8359375 38.74609375 C-179.35333173 37.03829342 -176.95975353 35.27797659 -174.58203125 33.4296875 C-171.34339081 30.9704709 -167.99437674 28.99214751 -164.41015625 27.078125 C-161.38080206 25.43492985 -158.42733478 23.6773312 -155.45703125 21.9296875 C-126.55563978 5.25764515 -93.73190844 -5.19478178 -60.83203125 -10.3203125 C-59.74921875 -10.50980469 -58.66640625 -10.69929688 -57.55078125 -10.89453125 C-37.2329675 -13.22083556 -17.07574423 -12.30618667 0 0 Z M-179.83203125 130.6796875 C-180.82203125 131.6696875 -181.81203125 132.6596875 -182.83203125 133.6796875 C-182.50203125 134.3396875 -182.17203125 134.9996875 -181.83203125 135.6796875 C-180.84203125 134.6896875 -179.85203125 133.6996875 -178.83203125 132.6796875 C-179.16203125 132.0196875 -179.49203125 131.3596875 -179.83203125 130.6796875 Z M-184.83203125 137.6796875 C-185.16203125 138.3396875 -185.49203125 138.9996875 -185.83203125 139.6796875 C-185.17203125 139.6796875 -184.51203125 139.6796875 -183.83203125 139.6796875 C-184.16203125 139.0196875 -184.49203125 138.3596875 -184.83203125 137.6796875 Z M-197.83203125 148.6796875 C-200.59774788 151.60062292 -203.24018809 154.60411324 -205.83203125 157.6796875 C-206.65703125 158.6490625 -207.48203125 159.6184375 -208.33203125 160.6171875 C-210.02808848 162.52422024 -210.02808848 162.52422024 -209.83203125 164.6796875 C-210.49203125 164.6796875 -211.15203125 164.6796875 -211.83203125 164.6796875 C-213.46870675 166.94267203 -214.97768636 169.19235862 -216.45703125 171.5546875 C-217.08738281 172.53115234 -217.08738281 172.53115234 -217.73046875 173.52734375 C-220.04329651 176.84216252 -220.04329651 176.84216252 -220.83203125 180.6796875 C-221.49203125 180.6796875 -222.15203125 180.6796875 -222.83203125 180.6796875 C-224.4384952 184.03275853 -226.04178302 187.38733898 -227.64453125 190.7421875 C-228.09634766 191.68513672 -228.54816406 192.62808594 -229.01367188 193.59960938 C-234.27380412 204.61901049 -237.94193032 215.44263781 -241.14941406 227.19921875 C-241.70818587 229.22966281 -242.29368628 231.25273428 -242.88671875 233.2734375 C-248.97163575 255.75865459 -242.19803043 278.65363646 -233.83203125 299.6796875 C-233.17203125 299.6796875 -232.51203125 299.6796875 -231.83203125 299.6796875 C-231.70054687 300.45505859 -231.70054687 300.45505859 -231.56640625 301.24609375 C-230.54448995 304.63255041 -228.83119722 307.56579319 -227.08203125 310.6171875 C-226.57929688 311.52887695 -226.57929688 311.52887695 -226.06640625 312.45898438 C-223.77866922 316.47552269 -221.21762225 319.48187805 -217.83203125 322.6796875 C-216.96393787 323.75189349 -216.1078589 324.83405136 -215.26953125 325.9296875 C-210.903243 331.09496149 -205.31041511 334.78601939 -199.83203125 338.6796875 C-199.1359375 339.20433594 -198.43984375 339.72898437 -197.72265625 340.26953125 C-169.62386957 360.55685523 -131.52289889 366.92322194 -97.70703125 366.7421875 C-96.06640762 366.73716187 -94.42578249 366.73260085 -92.78515625 366.72851562 C-88.80074383 366.71759555 -84.81640435 366.70038968 -80.83203125 366.6796875 C-83.71908211 363.75088717 -86.54182059 361.3926584 -89.953125 359.12109375 C-92.47034668 357.19000269 -94.58953104 354.92218771 -96.83203125 352.6796875 C-98.56429309 351.24138525 -100.3148342 349.82484306 -102.08203125 348.4296875 C-109.75414232 342.20125324 -116.33254684 335.56955621 -122.27734375 327.6796875 C-124.2657289 325.1217649 -126.48210597 322.9059325 -128.83203125 320.6796875 C-133.62233269 316.11219078 -133.62233269 316.11219078 -134.83203125 313.6171875 C-135.76852543 311.4689772 -135.76852543 311.4689772 -138.14453125 309.88671875 C-146.5204268 303.00825801 -152.86069951 291.71252559 -156.83203125 281.6796875 C-157.49203125 281.6796875 -158.15203125 281.6796875 -158.83203125 281.6796875 C-159.07953125 280.8959375 -159.32703125 280.1121875 -159.58203125 279.3046875 C-160.67808228 275.91768576 -160.67808228 275.91768576 -161.75 273.72265625 C-170.33229908 254.94682187 -169.49201163 231.89848803 -162.83203125 212.6796875 C-161.57012175 210.30020651 -160.19806574 208.00223252 -158.83203125 205.6796875 C-158.83203125 205.0196875 -158.83203125 204.3596875 -158.83203125 203.6796875 C-158.17203125 203.6796875 -157.51203125 203.6796875 -156.83203125 203.6796875 C-155.94330079 202.38262143 -155.12199724 201.03916385 -154.33203125 199.6796875 C-147.36424059 188.90667135 -134.28596652 180.84163583 -122.05078125 177.375 C-108.39445829 174.67276201 -91.58522515 174.70592641 -78.83203125 180.6796875 C-78.04699219 181.0303125 -77.26195312 181.3809375 -76.453125 181.7421875 C-68.7079654 185.62150222 -60.74868434 191.50007157 -55.83203125 198.6796875 C-52.84564195 197.33352514 -50.75295207 195.81330878 -48.39453125 193.5546875 C-35.10661132 181.67984861 -21.71745546 176.51463475 -4.26953125 176.3671875 C-3.15255859 176.33818359 -2.03558594 176.30917969 -0.88476562 176.27929688 C15.15224768 176.15843822 28.52797956 182.93980292 40.16796875 193.6796875 C42.02753973 195.92879454 43.55391068 198.23554243 45.16796875 200.6796875 C46.39 201.80697266 46.39 201.80697266 47.63671875 202.95703125 C50.52173085 206.06020013 51.53657037 208.54979343 52.85546875 212.5546875 C53.44908203 214.31425781 53.44908203 214.31425781 54.0546875 216.109375 C60.60649637 237.12114099 59.01382091 259.80659326 48.85546875 279.6171875 C48.29859375 280.6278125 47.74171875 281.6384375 47.16796875 282.6796875 C47.16796875 283.3396875 47.16796875 283.9996875 47.16796875 284.6796875 C46.50796875 284.6796875 45.84796875 284.6796875 45.16796875 284.6796875 C43.85214812 286.94865382 42.54021639 289.21971937 41.23046875 291.4921875 C40.85728516 292.13478516 40.48410156 292.77738281 40.09960938 293.43945312 C38.5333024 296.16285174 37.16427501 298.69076872 36.16796875 301.6796875 C35.17796875 302.0096875 34.18796875 302.3396875 33.16796875 302.6796875 C31.2127979 305.05881248 31.2127979 305.05881248 29.29296875 307.9296875 C26.49439575 311.89475893 23.70131013 315.33733755 20.16796875 318.6796875 C19.34296875 319.6696875 18.51796875 320.6596875 17.66796875 321.6796875 C15.29936136 324.52201637 12.78196652 327.06568973 10.16796875 329.6796875 C9.34296875 330.6903125 8.51796875 331.7009375 7.66796875 332.7421875 C5.33000189 335.48929857 2.97001824 337.43804791 0.16796875 339.6796875 C-1.58640934 341.62151969 -3.2014444 343.62980688 -4.83203125 345.6796875 C-4.50203125 346.3396875 -4.17203125 346.9996875 -3.83203125 347.6796875 C7.85755273 342.66986579 19.3414288 337.19740827 29.93359375 330.125 C31.96222215 328.81277534 33.98578789 327.7107179 36.16796875 326.6796875 C36.16796875 326.0196875 36.16796875 325.3596875 36.16796875 324.6796875 C36.74804688 324.40769531 37.328125 324.13570312 37.92578125 323.85546875 C60.43147043 312.05370491 76.88285508 288.43783868 84.35546875 264.9296875 C91.26975394 242.56156172 86.4458619 215.25743591 76.5859375 194.3203125 C73.85867072 189.15128875 73.85867072 189.15128875 70.16796875 184.6796875 C69.54296875 182.5546875 69.54296875 182.5546875 69.16796875 180.6796875 C83.65679975 186.23658033 97.06060925 198.9384366 103.68359375 212.8671875 C106.17141496 218.92946448 107.77868818 224.85178982 108.76953125 231.3203125 C109.1351051 233.85352405 109.1351051 233.85352405 110.23046875 236.8671875 C112.84439283 244.70895973 112.35111839 253.20156694 112.35546875 261.3671875 C112.36771484 262.55763672 112.37996094 263.74808594 112.39257812 264.97460938 C112.40980213 275.53292382 111.31589156 285.5719041 108.16796875 295.6796875 C107.84637546 296.99781462 107.53450079 298.31833688 107.23046875 299.640625 C104.93046917 309.33821939 101.86904699 318.54788566 98.16796875 327.8046875 C97.75289062 328.8467334 97.3378125 329.8887793 96.91015625 330.96240234 C94.38640106 337.13389647 91.53713692 342.93048908 88.16796875 348.6796875 C87.34759136 350.11510502 86.52856624 351.55129629 85.7109375 352.98828125 C84.5184667 355.07953995 83.32501236 357.17003971 82.12304688 359.25585938 C79.93662516 362.74586977 79.93662516 362.74586977 79.16796875 366.6796875 C78.50796875 366.6796875 77.84796875 366.6796875 77.16796875 366.6796875 C75.51796875 369.9796875 73.86796875 373.2796875 72.16796875 376.6796875 C76.16580702 374.68076837 78.11740923 372.86828138 81.16796875 369.6796875 C82.05355469 368.81730469 82.93914062 367.95492187 83.8515625 367.06640625 C88.60376515 362.40857358 93.13766593 357.82085497 96.94921875 352.3359375 C98.16796875 350.6796875 98.16796875 350.6796875 99.58203125 349.31640625 C103.42429391 345.35111547 106.16878 340.29337079 109.16796875 335.6796875 C109.64878906 334.94878906 110.12960937 334.21789062 110.625 333.46484375 C116.48913186 325.08985252 116.48913186 325.08985252 119.16796875 315.6796875 C119.82796875 315.6796875 120.48796875 315.6796875 121.16796875 315.6796875 C126.54966909 299.43959705 126.54966909 299.43959705 130.66015625 282.84765625 C131.16796875 280.6796875 131.16796875 280.6796875 132.16796875 279.6796875 C133.13315192 272.95059357 133.32083414 266.34455344 133.29296875 259.5546875 C133.29683594 258.60464844 133.30070312 257.65460938 133.3046875 256.67578125 C133.29485731 249.58821241 132.95135754 243.27772064 130.16796875 236.6796875 C129.32379448 233.96564535 128.5654274 231.2273865 127.79296875 228.4921875 C125.94348758 222.05461023 123.86849963 215.82000072 121.16796875 209.6796875 C120.50796875 209.6796875 119.84796875 209.6796875 119.16796875 209.6796875 C118.91015625 208.96425781 118.65234375 208.24882813 118.38671875 207.51171875 C117.0941211 204.50808639 115.54019785 202.04463378 113.66796875 199.3671875 C113.05953125 198.48417969 112.45109375 197.60117187 111.82421875 196.69140625 C111.27765625 196.02753906 110.73109375 195.36367188 110.16796875 194.6796875 C109.50796875 194.6796875 108.84796875 194.6796875 108.16796875 194.6796875 C107.81025391 193.82310547 107.81025391 193.82310547 107.4453125 192.94921875 C99.07843689 178.08330215 76.95930138 169.57270178 61.47265625 164.859375 C53.12016545 162.27684999 45.42918376 158.61537675 37.5859375 154.80078125 C32.229705 152.20612231 26.88276215 149.76536579 21.16796875 148.0546875 C20.38421875 147.81492187 19.60046875 147.57515625 18.79296875 147.328125 C-2.81185629 141.99121881 -25.70442817 147.0178788 -44.83203125 157.6796875 C-46.8662179 159.03943793 -48.87978547 160.4052404 -50.84765625 161.859375 C-53.85191238 163.1012919 -55.72773353 162.53644294 -58.83203125 161.6796875 C-61.91015625 159.97265625 -61.91015625 159.97265625 -65.08203125 157.8671875 C-82.56750094 146.67300967 -104.21285969 143.10527161 -124.58203125 146.9296875 C-147.083936 151.98734767 -168.53787906 165.63671274 -181.83203125 184.6796875 C-184.06345135 188.27817529 -186.13177703 191.96423528 -188.16796875 195.67578125 C-189.83203125 198.6796875 -189.83203125 198.6796875 -191.83203125 201.6796875 C-192.87288661 204.97974271 -193.57599125 208.36667279 -194.33203125 211.7421875 C-194.55270264 212.7228418 -194.77337402 213.70349609 -195.00073242 214.71386719 C-201.47717597 244.51756793 -199.36550317 273.58144655 -184.83203125 300.76074219 C-184.13854386 302.09150657 -183.47364473 303.43740901 -182.83203125 304.79394531 C-180.92854297 308.81469253 -179.14948325 311.63426657 -175.83203125 314.6796875 C-174.71562614 316.21873168 -173.6331586 317.78284263 -172.58203125 319.3671875 C-169.5573254 323.78038979 -166.2540319 327.74223879 -162.62890625 331.671875 C-160.90354591 333.59977764 -159.35185946 335.5875783 -157.83203125 337.6796875 C-172.55222613 336.1301933 -184.30226768 326.58571103 -194.5559082 316.62890625 C-196.97792735 314.28983037 -198.59170555 312.75979607 -201.83203125 311.6796875 C-202.828125 309.93359375 -202.828125 309.93359375 -203.83203125 307.6796875 C-205.36173007 305.1112542 -206.9260779 302.56589527 -208.4921875 300.01953125 C-209.83203125 297.6796875 -209.83203125 297.6796875 -210.83203125 294.6796875 C-211.49203125 294.6796875 -212.15203125 294.6796875 -212.83203125 294.6796875 C-220.63156404 265.86685036 -221.14194167 236.63108081 -214.15332031 207.56420898 C-213.33049505 204.13330761 -212.83203125 201.2330533 -212.83203125 197.6796875 C-212.17203125 197.6796875 -211.51203125 197.6796875 -210.83203125 197.6796875 C-210.48591797 196.26429688 -210.48591797 196.26429688 -210.1328125 194.8203125 C-208.22522459 187.2405258 -205.99263477 180.13151644 -202.78515625 172.97265625 C-201.7040868 170.78574903 -201.7040868 170.78574903 -201.83203125 168.6796875 C-201.17203125 168.6796875 -200.51203125 168.6796875 -199.83203125 168.6796875 C-199.46078125 167.5865625 -199.08953125 166.4934375 -198.70703125 165.3671875 C-196.06626338 158.34174844 -192.43699045 151.69963268 -187.95703125 145.6796875 C-185.54302258 142.88440197 -185.54302258 142.88440197 -185.83203125 139.6796875 C-190.39319336 139.6796875 -194.71278739 145.66533049 -197.83203125 148.6796875 Z M-131.83203125 205.6796875 C-132.66605469 206.27007813 -133.50007812 206.86046875 -134.359375 207.46875 C-142.18208812 214.46346663 -146.78454364 229.07349905 -148.17578125 239.17578125 C-148.33506755 243.00528937 -147.76868204 246.23523858 -146.51171875 249.84765625 C-146.24061279 250.63285645 -145.96950684 251.41805664 -145.69018555 252.22705078 C-145.40699463 253.0364209 -145.12380371 253.84579102 -144.83203125 254.6796875 C-144.56624268 255.46456543 -144.3004541 256.24944336 -144.02661133 257.05810547 C-143.20983128 259.45981894 -142.36696754 261.85113728 -141.51953125 264.2421875 C-141.24947266 265.04076172 -140.97941406 265.83933594 -140.70117188 266.66210938 C-138.60800833 272.51247763 -135.6906784 276.85187313 -131.83203125 281.6796875 C-130.22580224 284.09589524 -128.67245365 286.53578948 -127.12890625 288.9921875 C-126.7009375 289.5490625 -126.27296875 290.1059375 -125.83203125 290.6796875 C-125.17203125 290.6796875 -124.51203125 290.6796875 -123.83203125 290.6796875 C-123.56390625 291.25203125 -123.29578125 291.824375 -123.01953125 292.4140625 C-121.79070489 294.75853384 -120.40680949 296.80373688 -118.83203125 298.9296875 C-118.05859375 299.98929688 -118.05859375 299.98929688 -117.26953125 301.0703125 C-116.55796875 301.86695313 -116.55796875 301.86695313 -115.83203125 302.6796875 C-115.17203125 302.6796875 -114.51203125 302.6796875 -113.83203125 302.6796875 C-113.56648438 303.26105469 -113.3009375 303.84242188 -113.02734375 304.44140625 C-109.67046856 310.7273196 -104.03386733 315.5438381 -98.66796875 320.09765625 C-96.26381082 322.16932426 -94.07563097 324.43608778 -91.83203125 326.6796875 C-90.46781746 327.94145045 -89.09201404 329.19075744 -87.70703125 330.4296875 C-87.04445313 331.02265625 -86.381875 331.615625 -85.69921875 332.2265625 C-83.79019746 333.87868387 -83.79019746 333.87868387 -80.83203125 334.6796875 C-80.83203125 335.3396875 -80.83203125 335.9996875 -80.83203125 336.6796875 C-79.21467039 338.44867594 -77.59130895 340.05896866 -75.83203125 341.6796875 C-75.15785156 342.30101562 -74.48367188 342.92234375 -73.7890625 343.5625 C-70.30081404 347.23274742 -70.30081404 347.23274742 -65.83203125 348.6796875 C-65.83203125 349.3396875 -65.83203125 349.9996875 -65.83203125 350.6796875 C-64.09345165 352.10136882 -62.28979144 353.44417868 -60.45703125 354.7421875 C-59.45929688 355.45503906 -58.4615625 356.16789063 -57.43359375 356.90234375 C-54.99399273 358.65507609 -54.99399273 358.65507609 -52.83203125 359.6796875 C-46.41081631 354.92863705 -40.52819091 349.74199908 -34.68359375 344.31640625 C-32.36465442 342.17218153 -30.02639597 340.06564344 -27.64453125 337.9921875 C-27.02449219 337.45207031 -26.40445313 336.91195312 -25.765625 336.35546875 C-24.36472515 335.14135555 -22.9606676 333.93088272 -21.5546875 332.72265625 C-17.41291973 329.1184224 -13.63742279 325.49002028 -10.1484375 321.25 C-8.19088713 318.91488057 -5.98617839 316.83383464 -3.83203125 314.6796875 C6.42960917 305.23751123 6.42960917 305.23751123 12.16796875 293.6796875 C13.15796875 293.3496875 14.14796875 293.0196875 15.16796875 292.6796875 C17.3049212 289.97657715 17.3049212 289.97657715 19.35546875 286.7421875 C20.07089844 285.66066406 20.78632812 284.57914063 21.5234375 283.46484375 C23.33745024 280.93172863 23.33745024 280.93172863 23.16796875 278.6796875 C23.82796875 278.6796875 24.48796875 278.6796875 25.16796875 278.6796875 C27.90598517 272.70938091 30.57370217 266.71385047 33.16796875 260.6796875 C33.56371094 259.77089844 33.95945312 258.86210938 34.3671875 257.92578125 C39.17779575 244.80807389 36.88465826 230.643957 31.1875 218.31640625 C28.24485308 212.6428882 24.17027808 208.40027053 19.16796875 204.4296875 C18.34296875 203.76453125 17.51796875 203.099375 16.66796875 202.4140625 C8.35041591 196.64376022 -3.50321797 195.85598749 -13.3203125 197.16015625 C-24.35786233 199.44319533 -32.87760486 207.09217599 -39.26953125 216.1796875 C-42.16878025 220.89411849 -45.83203125 227.02254632 -45.83203125 232.6796875 C-54.0578377 235.26033266 -54.0578377 235.26033266 -57.83203125 234.6796875 C-63.28881967 231.81451363 -64.97521649 228.79376603 -66.89453125 223.1796875 C-71.23956634 211.93371432 -79.79867989 204.97512365 -89.83203125 198.6796875 C-103.50344522 193.09951853 -120.57892851 196.69039253 -131.83203125 205.6796875 Z " fill="#4070A6" transform="translate(599.83203125,321.3203125)"/>
<path d="M0 0 C0.84415466 0.00060425 1.68830933 0.0012085 2.55804443 0.00183105 C27.42002091 0.0501674 50.55716387 3.44191254 74.5 10.1875 C76.23636719 10.63029297 76.23636719 10.63029297 78.0078125 11.08203125 C87.09338991 13.47029824 95.12599855 17.03246111 103.5 21.1875 C104.50675781 21.66058594 105.51351563 22.13367188 106.55078125 22.62109375 C130.34169491 33.98535968 156.76347388 52.11013612 170.5 75.1875 C170.5 75.8475 170.5 76.5075 170.5 77.1875 C171.16 77.1875 171.82 77.1875 172.5 77.1875 C175.19166791 80.96310985 177.31348204 85.10401271 179.5 89.1875 C179.82838867 89.79271484 180.15677734 90.39792969 180.49511719 91.02148438 C199.35156974 126.37040718 202.17679516 168.04271337 190.765625 206.07421875 C190.34428998 207.44547853 189.92243329 208.81657816 189.5 210.1875 C189.12359375 211.45207031 188.7471875 212.71664062 188.359375 214.01953125 C186.91220628 218.83082724 185.42081004 223.54201668 183.5 228.1875 C182.84 228.1875 182.18 228.1875 181.5 228.1875 C181.43683594 228.74695313 181.37367188 229.30640625 181.30859375 229.8828125 C180.04309634 238.16849025 176.42798304 244.89867586 172.5 252.1875 C171.84 252.1875 171.18 252.1875 170.5 252.1875 C170.40460938 252.87457031 170.30921875 253.56164062 170.2109375 254.26953125 C169.35490383 257.78303209 167.84863113 260.72795607 166.125 263.875 C165.7755835 264.52073975 165.42616699 265.16647949 165.06616211 265.83178711 C160.92717333 273.37935489 156.42724284 280.70747825 151.86376953 288.00390625 C150.53429578 290.13258746 149.21799535 292.26900794 147.90234375 294.40625 C147.10251827 295.68809686 146.3017872 296.96937927 145.5 298.25 C145.13849854 298.83982666 144.77699707 299.42965332 144.40454102 300.03735352 C141.84443839 304.0726872 141.84443839 304.0726872 138.5 305.1875 C137.4209677 307.53280673 137.4209677 307.53280673 136.5 310.1875 C132.85652965 316.51877634 128.22162652 322.11653769 123.55078125 327.70703125 C121.50745985 330.11534089 121.50745985 330.11534089 119.85546875 332.51171875 C119.40816406 333.06472656 118.96085937 333.61773438 118.5 334.1875 C117.84 334.1875 117.18 334.1875 116.5 334.1875 C116.22800781 334.77660156 115.95601562 335.36570312 115.67578125 335.97265625 C111.62985544 343.59405139 104.2979625 349.61889935 97.7578125 355.05078125 C95.75222069 356.94880672 94.03124945 358.88459477 92.25 360.98828125 C88.63827577 365.1666543 84.67841363 368.61749582 80.375 372.0625 C79.63217773 372.66473389 78.88935547 373.26696777 78.12402344 373.88745117 C75.92388225 375.66425192 73.71452214 377.42866821 71.5 379.1875 C70.8925293 379.6707373 70.28505859 380.15397461 69.65917969 380.65185547 C50.31923821 395.96032553 29.6766081 408.46340061 7.5 419.1875 C6.88592285 419.4880127 6.2718457 419.78852539 5.63916016 420.09814453 C-27.34196304 436.05847732 -72.25115869 448.18882259 -108.421875 437.30859375 C-118.98228315 433.38943607 -127.7512161 426.24044177 -135.5 418.1875 C-135.5 417.5275 -135.5 416.8675 -135.5 416.1875 C-136.16 416.1875 -136.82 416.1875 -137.5 416.1875 C-138.65082685 413.93993216 -139.79576858 411.68968252 -140.9375 409.4375 C-141.26298828 408.80328125 -141.58847656 408.1690625 -141.92382812 407.515625 C-146.27748232 398.89808269 -146.79409966 389.73669356 -144.921875 380.26171875 C-142.28929253 372.56739815 -137.04892244 367.558162 -129.9140625 363.83984375 C-119.39808234 359.73065823 -107.60176718 360.03302763 -96.46484375 360.27734375 C-84.87150978 360.51922311 -74.6867778 359.23085943 -63.5 356.1875 C-62.32308594 355.87941406 -61.14617187 355.57132813 -59.93359375 355.25390625 C-57.4474031 354.59028703 -54.97080305 353.90588327 -52.5 353.1875 C-53.50160156 352.74019531 -54.50320313 352.29289062 -55.53515625 351.83203125 C-69.35725375 345.57764924 -69.35725375 345.57764924 -74.5 341.1875 C-74.5 340.5275 -74.5 339.8675 -74.5 339.1875 C-75.098125 339.001875 -75.69625 338.81625 -76.3125 338.625 C-79.52770154 336.51215327 -80.66342502 333.82180116 -81.5 330.1875 C-81.69662934 325.6952758 -81.35448597 322.32681462 -78.625 318.6875 C-73.51008939 315.07697487 -67.49384237 315.79570067 -61.5 316.1875 C-56.94491023 316.97379526 -52.4863282 318.08037435 -48 319.1875 C-30.6795658 323.15097037 -13.24215737 325.50244219 2.875 316.25 C3.74125 315.569375 4.6075 314.88875 5.5 314.1875 C12.23352436 309.1875 12.23352436 309.1875 14.5 309.1875 C14.5 308.5275 14.5 307.8675 14.5 307.1875 C15.78515625 305.9609375 15.78515625 305.9609375 17.5625 304.5625 C21.05879516 301.67364198 23.94607355 298.50827371 26.8828125 295.0625 C29.43861995 292.09924499 32.227828 289.387219 35.07324219 286.70385742 C39.43141031 282.50433649 42.93902096 278.11961823 46.25 273.0625 C46.75950195 272.28535645 47.26900391 271.50821289 47.79394531 270.70751953 C68.31872206 238.80473962 83.00715633 197.60071317 76.5 159.1875 C75.84 161.4975 75.18 163.8075 74.5 166.1875 C74.17 166.1875 73.84 166.1875 73.5 166.1875 C73.46036133 165.61531738 73.42072266 165.04313477 73.37988281 164.45361328 C71.1615511 130.41532103 71.1615511 130.41532103 55.5 101.1875 C55.5 99.8675 55.5 98.5475 55.5 97.1875 C66.56614397 98.63522134 77.57905981 110.47735242 84.5703125 118.58984375 C91.08480083 127.28992882 94.46756279 137.16088159 96.1015625 147.828125 C96.46713635 150.36133655 96.46713635 150.36133655 97.5625 153.375 C100.17642408 161.21677223 99.68314964 169.70937944 99.6875 177.875 C99.69974609 179.06544922 99.71199219 180.25589844 99.72460938 181.48242188 C99.74183338 192.04073632 98.64792281 202.0797166 95.5 212.1875 C95.17840671 213.50562712 94.86653204 214.82614938 94.5625 216.1484375 C92.26250042 225.84603189 89.20107824 235.05569816 85.5 244.3125 C85.08492187 245.3545459 84.66984375 246.3965918 84.2421875 247.47021484 C81.71712749 253.64489972 78.84929623 259.42491049 75.5 265.1875 C74.60486728 266.79118365 73.71299416 268.39669061 72.82421875 270.00390625 C69.16210938 276.59570312 69.16210938 276.59570312 65.5 283.1875 C64.84 283.1875 64.18 283.1875 63.5 283.1875 C62.26078698 286.16161124 61.19941596 289.04012818 60.5 292.1875 C61.180625 291.445 61.180625 291.445 61.875 290.6875 C63.5 289.1875 63.5 289.1875 65.5 289.1875 C65.73203125 288.62546875 65.9640625 288.0634375 66.203125 287.484375 C67.82788054 284.60679591 69.85729844 282.71419179 72.25 280.4375 C76.0394223 276.74650425 79.29173716 273.06662427 82.24609375 268.68359375 C83.5 267.1875 83.5 267.1875 86.5 266.1875 C87.21428397 264.54067863 87.8742005 262.86993788 88.5 261.1875 C89.53854815 259.59488106 90.62507938 258.03283103 91.75 256.5 C97.25612301 248.78455944 101.89601407 240.96426574 105.5 232.1875 C106.16 232.1875 106.82 232.1875 107.5 232.1875 C107.8403125 230.4859375 107.8403125 230.4859375 108.1875 228.75 C109.4032563 223.23099121 111.04857289 217.85421082 112.67358398 212.44555664 C113.83582063 208.54701351 114.90740017 204.6706992 115.75 200.6875 C116.5 197.1875 116.5 197.1875 117.5 196.1875 C118.46518317 189.45840607 118.65286539 182.85236594 118.625 176.0625 C118.62886719 175.11246094 118.63273437 174.16242188 118.63671875 173.18359375 C118.62689324 166.09940355 118.291201 159.78033676 115.5 153.1875 C114.63210163 150.4744978 113.85006194 147.73725427 113.0625 145 C112.62260008 143.48691977 112.18249655 141.97389872 111.7421875 140.4609375 C111.53045898 139.73100586 111.31873047 139.00107422 111.10058594 138.24902344 C109.92697595 134.2205833 108.71382266 130.20397011 107.5 126.1875 C106.84 126.1875 106.18 126.1875 105.5 126.1875 C104.41408387 124.60525101 103.4075854 122.96829588 102.4375 121.3125 C89.66959813 100.77855472 70.23094391 89.1844219 47.62109375 82.3125 C39.33846909 79.73209955 31.70214875 76.09483447 23.91796875 72.30859375 C18.56173625 69.71393481 13.2147934 67.27317829 7.5 65.5625 C6.71625 65.32273437 5.9325 65.08296875 5.125 64.8359375 C-16.47982504 59.49903131 -39.37239692 64.5256913 -58.5 75.1875 C-60.53418665 76.54725043 -62.54775422 77.9130529 -64.515625 79.3671875 C-67.51988113 80.6091044 -69.39570228 80.04425544 -72.5 79.1875 C-75.578125 77.48046875 -75.578125 77.48046875 -78.75 75.375 C-96.23546969 64.18082217 -117.88082844 60.61308411 -138.25 64.4375 C-154.10806964 68.0018528 -166.67969173 75.3178976 -179.5 85.1875 C-180.47066406 85.92419922 -180.47066406 85.92419922 -181.4609375 86.67578125 C-188.67284272 92.46814857 -194.24154898 100.02546888 -198.5 108.1875 C-199.49 108.1875 -200.48 108.1875 -201.5 108.1875 C-198.47365609 97.86232667 -193.23881056 83.92631056 -185.5 76.1875 C-184.84 76.06375 -184.18 75.94 -183.5 75.8125 C-182.51 75.503125 -182.51 75.503125 -181.5 75.1875 C-180.82166352 73.86006569 -180.1572607 72.52549499 -179.5 71.1875 C-178.37695108 69.73601225 -177.20778017 68.3192824 -176 66.9375 C-175.08734375 65.87789062 -175.08734375 65.87789062 -174.15625 64.796875 C-172.5 63.1875 -172.5 63.1875 -170.5 63.1875 C-169.84 61.8675 -169.18 60.5475 -168.5 59.1875 C-167.84 59.1875 -167.18 59.1875 -166.5 59.1875 C-166.5 58.5275 -166.5 57.8675 -166.5 57.1875 C-164.24338671 55.37318291 -161.98246781 53.67431879 -159.625 52 C-158.93825195 51.50604736 -158.25150391 51.01209473 -157.54394531 50.50317383 C-156.16392299 49.51247566 -154.78178191 48.52472171 -153.39746094 47.54003906 C-151.81193416 46.40985142 -150.23669354 45.26525148 -148.6640625 44.1171875 C-142.87026283 39.93590165 -136.84639628 36.46158016 -130.5 33.1875 C-129.71109375 32.77886719 -128.9221875 32.37023437 -128.109375 31.94921875 C-125.58619801 30.66674303 -123.04530183 29.42545885 -120.5 28.1875 C-119.52933594 27.69894531 -118.55867188 27.21039063 -117.55859375 26.70703125 C-80.33382954 8.54755763 -41.36429267 -0.05459832 0 0 Z " fill="#8EBEE4" transform="translate(613.5,404.8125)"/>
<path d="M0 0 C0.639375 0.556875 1.27875 1.11375 1.9375 1.6875 C2.2675 -1.6125 2.5975 -4.9125 2.9375 -8.3125 C13.8275 -8.3125 24.7175 -8.3125 35.9375 -8.3125 C36.00538291 9.32556846 36.060578 26.96352435 36.09293652 44.60168743 C36.10836462 52.79253016 36.12937594 60.98328559 36.16381836 69.17407227 C36.19384561 76.31832705 36.21310444 83.46251857 36.21976548 90.60683471 C36.22365533 94.3850255 36.2327109 98.16303538 36.25469017 101.94116783 C36.2752667 105.50754577 36.28129179 109.07367072 36.27682304 112.64010239 C36.27802376 114.55204776 36.29405393 116.46396648 36.3107605 118.37583923 C36.26791214 130.53849386 33.98949744 141.09052424 27.9375 151.6875 C27.2775 151.6875 26.6175 151.6875 25.9375 151.6875 C25.6590625 152.6775 25.6590625 152.6775 25.375 153.6875 C19.78617387 165.35113715 7.6191204 172.30619112 -4.0625 176.6875 C-13.03658159 179.34021594 -21.60809801 180.20487061 -30.9375 180.125 C-32.16114258 180.11887695 -33.38478516 180.11275391 -34.64550781 180.10644531 C-46.63834034 179.8992877 -57.68495379 178.08735719 -68.0625 171.6875 C-68.79855469 171.23375 -69.53460937 170.78 -70.29296875 170.3125 C-78.62952231 164.9502947 -85.23996508 159.51998154 -90.0625 150.6875 C-90.0625 150.0275 -90.0625 149.3675 -90.0625 148.6875 C-90.7225 148.6875 -91.3825 148.6875 -92.0625 148.6875 C-93.0525 145.7175 -94.0425 142.7475 -95.0625 139.6875 C-92.08398783 138.58154177 -89.10471984 137.47769602 -86.125 136.375 C-85.29419922 136.06626953 -84.46339844 135.75753906 -83.60742188 135.43945312 C-66.80522992 129.22852614 -66.80522992 129.22852614 -62.0625 129.6875 C-61.6603125 130.8940625 -61.6603125 130.8940625 -61.25 132.125 C-60.858125 132.970625 -60.46625 133.81625 -60.0625 134.6875 C-59.0725 135.0175 -58.0825 135.3475 -57.0625 135.6875 C-55.84375 137.140625 -55.84375 137.140625 -54.5625 138.9375 C-49.78733699 144.75386396 -42.38368398 147.57513406 -35.0625 148.6875 C-25.40790623 149.38867161 -17.44570204 148.70758286 -9.75 142.5 C-5.21096575 138.24126468 -3.00340047 133.5102014 -1.0625 127.6875 C-1.01724094 124.9917573 -1.01486204 122.31892683 -1.0625 119.625 C-1.19737681 111.95725361 -1.19737681 111.95725361 -0.0625 109.6875 C-0.86171875 110.23019531 -1.6609375 110.77289062 -2.484375 111.33203125 C-17.74139769 121.27058477 -33.83505796 122.96832819 -51.625 119.4375 C-66.21962949 115.78884263 -77.77562286 108.78325979 -88.0625 97.6875 C-89.37890625 94.87890625 -89.37890625 94.87890625 -90.0625 92.6875 C-90.7225 92.6875 -91.3825 92.6875 -92.0625 92.6875 C-101.60962272 75.29135939 -103.38750176 55.26056557 -99.97265625 35.80859375 C-98.19452022 29.71103714 -95.15754725 24.20727679 -92.0625 18.6875 C-91.4025 18.6875 -90.7425 18.6875 -90.0625 18.6875 C-89.876875 18.0275 -89.69125 17.3675 -89.5 16.6875 C-84.46615775 6.18209009 -73.54489717 -1.82004407 -63.0625 -6.3125 C-62.4025 -6.3125 -61.7425 -6.3125 -61.0625 -6.3125 C-60.7325 -6.9725 -60.4025 -7.6325 -60.0625 -8.3125 C-40.25524977 -14.98634938 -16.78093146 -12.67131559 0 0 Z M-59.140625 33.02734375 C-64.53271091 40.49077973 -66.27265554 50.66747468 -65.0625 59.6875 C-63.30274896 68.46542976 -60.52034837 74.50575916 -54.0625 80.6875 C-53.464375 81.43 -52.86625 82.1725 -52.25 82.9375 C-45.13428429 88.63007256 -35.95620667 90.06924843 -27.0625 89.6875 C-18.09390219 88.38694927 -12.11499518 85.0410725 -6.02734375 78.3515625 C-3.29222992 74.6431179 -1.92131416 71.18168283 -1.0625 66.6875 C-0.88332031 65.9140625 -0.70414063 65.140625 -0.51953125 64.34375 C1.16874873 54.53152449 0.88892887 43.77562745 -4.64453125 35.25 C-6.36486001 32.97122029 -8.17334712 30.82712483 -10.0625 28.6875 C-10.784375 27.759375 -11.50625 26.83125 -12.25 25.875 C-18.44581067 21.05603615 -26.68064579 18.91927254 -34.4921875 19.30859375 C-45.16138565 20.88140867 -52.09308496 25.09223758 -59.140625 33.02734375 Z " fill="#184181" transform="translate(1422.0625,528.3125)"/>
<path d="M0 0 C105.37413395 0 105.37413395 0 123.28125 17.00390625 C132 27.12954545 132 27.12954545 132 33 C132.66 33 133.32 33 134 33 C134.48509793 34.37291868 134.96275513 35.74846703 135.4375 37.125 C135.70433594 37.89070313 135.97117187 38.65640625 136.24609375 39.4453125 C140.81016184 54.91111837 138.9303242 72.72590803 131.625 86.875 C125.79468257 97.06896458 118.21313717 104.10920838 108 110 C108.33 110.598125 108.66 111.19625 109 111.8125 C110 114 110 114 110 117 C110.66 117 111.32 117 112 117 C113.32002556 119.55886504 114.63113782 122.12167068 115.9375 124.6875 C116.31068359 125.40873047 116.68386719 126.12996094 117.06835938 126.87304688 C118.93965239 130.56505742 120.48269556 133.83693096 121 138 C121.66 138 122.32 138 123 138 C124.50978518 140.93257033 126.00610203 143.87180894 127.5 146.8125 C128.14388672 148.06256836 128.14388672 148.06256836 128.80078125 149.33789062 C129.20683594 150.14033203 129.61289062 150.94277344 130.03125 151.76953125 C130.40830078 152.50792236 130.78535156 153.24631348 131.17382812 154.00708008 C132 156 132 156 132 159 C132.99 159.33 133.98 159.66 135 160 C136.18261719 161.82592773 136.18261719 161.82592773 137.296875 164.18359375 C137.69777344 165.02857422 138.09867188 165.87355469 138.51171875 166.74414062 C138.92035156 167.63294922 139.32898438 168.52175781 139.75 169.4375 C140.17410156 170.32244141 140.59820313 171.20738281 141.03515625 172.11914062 C143.32554267 177.0169865 143.32554267 177.0169865 144 179 C143.67 179.66 143.34 180.32 143 181 C129.8 181 116.6 181 103 181 C102.01 178.525 102.01 178.525 101 176 C100.34 176 99.68 176 99 176 C97.65722268 173.2336466 96.32744772 170.46123789 95 167.6875 C94.6184375 166.90181641 94.236875 166.11613281 93.84375 165.30664062 C93.4828125 164.54931641 93.121875 163.79199219 92.75 163.01171875 C92.41484375 162.31522217 92.0796875 161.61872559 91.734375 160.90112305 C91 159 91 159 91 156 C90.34 156 89.68 156 89 156 C88.71801758 155.39526855 88.43603516 154.79053711 88.14550781 154.16748047 C86.85202069 151.40094351 85.55108234 148.63797261 84.25 145.875 C83.8065625 144.92367187 83.363125 143.97234375 82.90625 142.9921875 C81.10435024 139.17639977 79.3799857 135.5523048 76.984375 132.0703125 C73.97900694 127.42027452 72.12950151 122.11080362 70 117 C59.44 116.67 48.88 116.34 38 116 C38.01160156 120.60839844 38.02320313 125.21679688 38.03515625 129.96484375 C38.04026321 132.87695452 38.045077 135.78905981 38.04882812 138.70117188 C38.05481579 143.3277297 38.06191404 147.95426782 38.07543945 152.58081055 C38.086271 156.30903401 38.0922774 160.03723634 38.09487724 163.76547432 C38.09673101 165.19089656 38.10035071 166.61631759 38.10573006 168.04173088 C38.11294393 170.03163408 38.11340808 172.02155834 38.11352539 174.01147461 C38.115746 175.14620712 38.11796661 176.28093964 38.12025452 177.45005798 C38 180 38 180 37 181 C24.79 181 12.58 181 0 181 C0 121.27 0 61.54 0 0 Z M38 31 C38 48.49 38 65.98 38 84 C44.579375 84.061875 51.15875 84.12375 57.9375 84.1875 C59.99605225 84.21481201 62.05460449 84.24212402 64.17553711 84.27026367 C65.83446672 84.27903773 67.49340286 84.28667948 69.15234375 84.29296875 C70.41117371 84.3159906 70.41117371 84.3159906 71.69543457 84.33947754 C79.13180801 84.34272062 87.09597311 82.78704883 93 78 C98.62581767 70.74269521 101.59799012 64.54303803 101.44921875 55.2734375 C100.48725725 48.26366586 96.90160414 42.4520685 92.625 36.9375 C85.24102673 31.48742449 76.8717608 30.84663335 67.98046875 30.90234375 C67.21883423 30.90335083 66.45719971 30.90435791 65.67248535 30.90539551 C62.84414145 30.91060321 60.01581911 30.92456439 57.1875 30.9375 C47.6896875 30.9684375 47.6896875 30.9684375 38 31 Z " fill="#194383" transform="translate(877,473)"/>
<path d="M0 0 C0.78503906 0.350625 1.57007813 0.70125 2.37890625 1.0625 C9.89492581 4.82704545 17.46722667 10.66112725 23 17 C23 17.66 23 18.32 23 19 C24.37607531 17.93889304 25.75079832 16.87603232 27.125 15.8125 C27.89070312 15.22082031 28.65640625 14.62914062 29.4453125 14.01953125 C31.29095986 12.56051032 33.09941914 11.05402282 34.8828125 9.51953125 C37.97301328 6.935832 41.25760003 4.88984614 44.75 2.875 C45.87921875 2.21242188 47.0084375 1.54984375 48.171875 0.8671875 C56.8579441 -3.63281029 65.19412148 -4.49977466 74.875 -4.4375 C75.96941406 -4.45748047 77.06382812 -4.47746094 78.19140625 -4.49804688 C94.29130874 -4.48852031 107.19964416 2.49480517 119 13 C124 18.10089686 124 18.10089686 124 21 C124.99 21.33 125.98 21.66 127 22 C136.61958335 36.27422045 140.02307978 55.24780514 137.3125 72.125 C134.98760717 83.53662185 131.85051934 94.86739842 126 105 C125.34 105 124.68 105 124 105 C123.73960937 105.87398437 123.47921875 106.74796875 123.2109375 107.6484375 C122.00220038 110.99390992 120.54903718 113.64232227 118.625 116.625 C118.03976562 117.54539062 117.45453125 118.46578125 116.8515625 119.4140625 C115.07262113 121.89857555 113.17613974 123.86636299 111 126 C109.14886398 128.35883155 107.3674599 130.76020712 105.5859375 133.171875 C105.06257812 133.77515625 104.53921875 134.3784375 104 135 C103.34 135 102.68 135 102 135 C101.731875 135.58265625 101.46375 136.1653125 101.1875 136.765625 C99.98519009 139.02786601 98.66174087 140.80576318 97 142.75 C96.484375 143.36359375 95.96875 143.9771875 95.4375 144.609375 C94 146 94 146 92 146 C91.72800781 146.58910156 91.45601562 147.17820312 91.17578125 147.78515625 C88.26373009 153.27064798 83.40545386 157.70468249 79 162 C78.48050781 162.54140625 77.96101562 163.0828125 77.42578125 163.640625 C75.98789136 165.13073849 74.49712599 166.56941294 73 168 C72.34 168 71.68 168 71 168 C71 168.66 71 169.32 71 170 C70.34 170 69.68 170 69 170 C69 170.66 69 171.32 69 172 C67.90558594 172.32871094 67.90558594 172.32871094 66.7890625 172.6640625 C60.91180927 174.44900608 55.07144746 176.29968904 49.25610352 178.27587891 C33.3241091 183.68104749 14.97509859 189.77406914 -2 187 C-7.09412669 184.44701325 -12.13901329 181.58296013 -14 176 C-15.31271779 175.29360477 -16.65117592 174.63474075 -18 174 C-28.0292121 166.56620701 -37.24677608 157.79354601 -45 148 C-45 147.34 -45 146.68 -45 146 C-45.99 145.67 -46.98 145.34 -48 145 C-49.75390625 143.29296875 -49.75390625 143.29296875 -51.5625 141.1875 C-52.16191406 140.50042969 -52.76132812 139.81335938 -53.37890625 139.10546875 C-55 137 -55 137 -56.05078125 134.8671875 C-56.9776347 132.71970341 -56.9776347 132.71970341 -59.625 130.9375 C-67.39645207 124.78114188 -73.9895097 114.08683163 -78 105 C-78 104.01 -78 103.02 -78 102 C-78.66 102 -79.32 102 -80 102 C-90.34699251 81.84178157 -92.6089202 59.4548364 -86.6875 37.5625 C-85.08650426 32.70174489 -82.66108515 28.35450297 -80 24 C-79.34 24 -78.68 24 -78 24 C-77.79375 23.319375 -77.5875 22.63875 -77.375 21.9375 C-74.07572855 14.88905645 -68.33780423 10.27433309 -62 6 C-61.24847656 5.48308594 -60.49695313 4.96617187 -59.72265625 4.43359375 C-43.0281467 -6.36236948 -18.22365101 -8.536194 0 0 Z M-53 26 C-53.83402344 26.59039063 -54.66804688 27.18078125 -55.52734375 27.7890625 C-63.35005687 34.78377913 -67.95251239 49.39381155 -69.34375 59.49609375 C-69.5030363 63.32560187 -68.93665079 66.55555108 -67.6796875 70.16796875 C-67.40858154 70.95316895 -67.13747559 71.73836914 -66.8581543 72.54736328 C-66.57496338 73.3567334 -66.29177246 74.16610352 -66 75 C-65.73421143 75.78487793 -65.46842285 76.56975586 -65.19458008 77.37841797 C-64.37780003 79.78013144 -63.53493629 82.17144978 -62.6875 84.5625 C-62.41744141 85.36107422 -62.14738281 86.15964844 -61.86914062 86.98242188 C-59.77597708 92.83279013 -56.85864715 97.17218563 -53 102 C-51.39377099 104.41620774 -49.8404224 106.85610198 -48.296875 109.3125 C-47.86890625 109.869375 -47.4409375 110.42625 -47 111 C-46.34 111 -45.68 111 -45 111 C-44.731875 111.57234375 -44.46375 112.1446875 -44.1875 112.734375 C-42.95867364 115.07884634 -41.57477824 117.12404938 -40 119.25 C-39.2265625 120.30960938 -39.2265625 120.30960938 -38.4375 121.390625 C-37.7259375 122.18726563 -37.7259375 122.18726563 -37 123 C-36.34 123 -35.68 123 -35 123 C-34.73445313 123.58136719 -34.46890625 124.16273438 -34.1953125 124.76171875 C-30.83843731 131.0476321 -25.20183608 135.8641506 -19.8359375 140.41796875 C-17.43177957 142.48963676 -15.24359972 144.75640028 -13 147 C-11.63578621 148.26176295 -10.25998279 149.51106994 -8.875 150.75 C-8.21242188 151.34296875 -7.54984375 151.9359375 -6.8671875 152.546875 C-4.95816621 154.19899637 -4.95816621 154.19899637 -2 155 C-2 155.66 -2 156.32 -2 157 C-0.38263914 158.76898844 1.2407223 160.37928116 3 162 C3.67417969 162.62132812 4.34835937 163.24265625 5.04296875 163.8828125 C8.53121721 167.55305992 8.53121721 167.55305992 13 169 C13 169.66 13 170.32 13 171 C14.7385796 172.42168132 16.54223981 173.76449118 18.375 175.0625 C19.37273437 175.77535156 20.37046875 176.48820313 21.3984375 177.22265625 C23.83803852 178.97538859 23.83803852 178.97538859 26 180 C32.42121494 175.24894955 38.30384034 170.06231158 44.1484375 164.63671875 C46.46737683 162.49249403 48.80563528 160.38595594 51.1875 158.3125 C51.80753906 157.77238281 52.42757812 157.23226562 53.06640625 156.67578125 C54.4673061 155.46166805 55.87136365 154.25119522 57.27734375 153.04296875 C61.41911152 149.4387349 65.19460846 145.81033278 68.68359375 141.5703125 C70.64114412 139.23519307 72.84585286 137.15414714 75 135 C85.26164042 125.55782373 85.26164042 125.55782373 91 114 C91.99 113.67 92.98 113.34 94 113 C96.13695245 110.29688965 96.13695245 110.29688965 98.1875 107.0625 C98.90292969 105.98097656 99.61835937 104.89945313 100.35546875 103.78515625 C102.16948149 101.25204113 102.16948149 101.25204113 102 99 C102.66 99 103.32 99 104 99 C106.73801642 93.02969341 109.40573342 87.03416297 112 81 C112.39574219 80.09121094 112.79148437 79.18242188 113.19921875 78.24609375 C118.009827 65.12838639 115.71668951 50.9642695 110.01953125 38.63671875 C107.07688433 32.9632007 103.00230933 28.72058303 98 24.75 C97.175 24.08484375 96.35 23.4196875 95.5 22.734375 C87.18244716 16.96407272 75.32881328 16.17629999 65.51171875 17.48046875 C54.47416892 19.76350783 45.95442639 27.41248849 39.5625 36.5 C36.663251 41.21443099 33 47.34285882 33 53 C24.77419355 55.58064516 24.77419355 55.58064516 21 55 C15.54321158 52.13482613 13.85681476 49.11407853 11.9375 43.5 C7.59246491 32.25402682 -0.96664864 25.29543615 -11 19 C-24.67141397 13.41983103 -41.74689726 17.01070503 -53 26 Z " fill="#8EBFE3" transform="translate(521,501)"/>
<path d="M0 0 C11.88 0 23.76 0 36 0 C36 32.67 36 65.34 36 99 C40.10990068 96.53405959 41.85462038 95.30744586 44.6875 91.8125 C46.44921875 89.64453125 46.44921875 89.64453125 48 88 C48.66 88 49.32 88 50 88 C50.2578125 87.42765625 50.515625 86.8553125 50.78125 86.265625 C52.11365942 83.78871005 53.65056118 81.8658834 55.5 79.75 C56.41265625 78.69039062 56.41265625 78.69039062 57.34375 77.609375 C59 76 59 76 61 76 C61.2578125 75.42765625 61.515625 74.8553125 61.78125 74.265625 C63.11365942 71.78871005 64.65056118 69.8658834 66.5 67.75 C67.1084375 67.04359375 67.716875 66.3371875 68.34375 65.609375 C70 64 70 64 72 64 C72.25910156 63.42507813 72.51820312 62.85015625 72.78515625 62.2578125 C74.09884061 59.81630266 75.60297053 57.95018817 77.4375 55.875 C78.33275391 54.85019531 78.33275391 54.85019531 79.24609375 53.8046875 C81.30242911 51.68881459 82.98821209 50.12208656 85.99320984 49.75949097 C86.75043839 49.76393219 87.50766693 49.76837341 88.2878418 49.77294922 C89.57884041 49.77317581 89.57884041 49.77317581 90.8959198 49.77340698 C92.28355278 49.78889084 92.28355278 49.78889084 93.69921875 49.8046875 C94.64940384 49.8075174 95.59958893 49.81034729 96.5785675 49.81326294 C99.61500615 49.82446285 102.65115042 49.84956712 105.6875 49.875 C107.74543845 49.88503004 109.80338152 49.89415585 111.86132812 49.90234375 C116.9076656 49.92440158 121.95378288 49.95893018 127 50 C125.74325117 53.77024649 123.8413389 55.22180196 121 58 C119.51581197 59.69844089 118.06570887 61.42085068 116.625 63.15625 C113.77052327 66.39498321 110.64378284 69.36553234 107.5703125 72.39453125 C102.94601088 76.96712343 98.50654632 81.57617202 94.375 86.6015625 C93.694375 87.29378906 93.694375 87.29378906 93 88 C92.34 88 91.68 88 91 88 C90.73058594 88.58523438 90.46117187 89.17046875 90.18359375 89.7734375 C88.99937503 92.00117569 87.71029447 93.721441 86.0625 95.625 C85.55847656 96.21539063 85.05445313 96.80578125 84.53515625 97.4140625 C83 99 83 99 80 101 C80.51512101 105.5073088 82.21030141 107.51411995 85 111 C86.30889468 113.18598906 87.57748417 115.39643783 88.8125 117.625 C91.8511407 123.0678557 95.07600793 128.3224304 98.5546875 133.5 C100 136 100 136 101.0078125 139.25 C101.49894531 140.61125 101.49894531 140.61125 102 142 C102.99 142.33 103.98 142.66 105 143 C106.52008491 145.27286119 107.8711532 147.48986529 109.1875 149.875 C109.55552734 150.51308594 109.92355469 151.15117188 110.30273438 151.80859375 C113 156.60262059 113 156.60262059 113 160 C113.99 160.33 114.98 160.66 116 161 C117.52008491 163.27286119 118.8711532 165.48986529 120.1875 167.875 C120.55552734 168.51308594 120.92355469 169.15117188 121.30273438 169.80859375 C124 174.60262059 124 174.60262059 124 178 C124.99 178.33 125.98 178.66 127 179 C128.1875 181.0625 128.1875 181.0625 129 183 C125.97266108 186.02733892 115.06477974 184.55286841 110.79199219 184.62475586 C108.85754201 184.66636564 106.92340893 184.72768652 104.99023438 184.80932617 C89.00326896 185.47362348 89.00326896 185.47362348 84.28979492 182.00634766 C82.43768694 179.40797179 81.20448358 176.9486971 80 174 C79.20339111 172.59578954 78.39339666 171.19903511 77.56640625 169.8125 C76.8916558 168.54525439 76.22348729 167.27447849 75.5625 166 C75.21251953 165.34644531 74.86253906 164.69289063 74.50195312 164.01953125 C72 159.27022688 72 159.27022688 72 157 C71.34 157 70.68 157 70 157 C68.49212623 154.40011448 66.99354539 151.79559803 65.5 149.1875 C65.07074219 148.44951172 64.64148437 147.71152344 64.19921875 146.95117188 C63.79316406 146.23896484 63.38710937 145.52675781 62.96875 144.79296875 C62.40317383 143.81106567 62.40317383 143.81106567 61.82617188 142.80932617 C61 141 61 141 61 138 C60.01 137.67 59.02 137.34 58 137 C56.61328125 135.15234375 56.61328125 135.15234375 55.3125 132.9375 C54.87550781 132.20402344 54.43851563 131.47054687 53.98828125 130.71484375 C53.66214844 130.14894531 53.33601563 129.58304688 53 129 C48.69114547 132.36300841 45.14405459 135.96081826 41.61328125 140.1328125 C40 142 40 142 38.42619324 143.37165833 C35.90128301 146.25444899 36.51623322 150.16026406 36.48828125 153.82421875 C36.47033005 154.68561966 36.45237885 155.54702057 36.43388367 156.43452454 C36.37970702 159.18546658 36.34586177 161.93623441 36.3125 164.6875 C36.27933337 166.55275866 36.24484433 168.4179943 36.20898438 170.28320312 C36.12397644 174.85534318 36.05720057 179.42743091 36 184 C31.03377651 184.02465098 26.06758834 184.04283649 21.10131836 184.05493164 C19.41055684 184.0599719 17.71979971 184.06680405 16.02905273 184.07543945 C13.60399293 184.08751857 11.17899056 184.09323123 8.75390625 184.09765625 C7.61327477 184.10539818 7.61327477 184.10539818 6.44960022 184.11329651 C4.6326743 184.11349238 2.81586873 184.06197277 1 184 C-0.66749941 182.33250059 -0.12214776 180.30804249 -0.12908131 178.08123869 C-0.12616847 177.37210799 -0.12325563 176.66297729 -0.12025452 175.93235779 C-0.12110894 175.18421328 -0.12196337 174.43606877 -0.12284368 173.66525322 C-0.12450073 171.13936053 -0.11897348 168.61353314 -0.11352539 166.08764648 C-0.11324354 164.28456626 -0.11340121 162.48148592 -0.1139679 160.67840576 C-0.11425596 155.76745461 -0.10835784 150.85652766 -0.10139394 145.94558215 C-0.09516184 140.81927788 -0.09455672 135.69297312 -0.09336853 130.56666565 C-0.09025479 120.85209374 -0.08204083 111.13753303 -0.07201904 101.42296606 C-0.06085923 90.36632283 -0.05534779 79.30967907 -0.05032361 68.25303161 C-0.03985825 45.50201343 -0.02151224 22.7510106 0 0 Z " fill="#184181" transform="translate(1485,470)"/>
<path d="M0 0 C5.92972025 4.69501722 11.01442622 8.91542063 14 16 C14 16.66 14 17.32 14 18 C14.66 18 15.32 18 16 18 C16.65537907 20.14293716 17.29879288 22.28953478 17.9375 24.4375 C18.47697266 26.22994141 18.47697266 26.22994141 19.02734375 28.05859375 C21.17069164 36.07861369 21.14869781 44.28290219 21.1328125 52.53125 C21.13479141 54.17835464 21.13479141 54.17835464 21.1368103 55.85873413 C21.13871599 59.40585207 21.1324156 62.95289018 21.125 66.5 C21.12367065 68.30431488 21.12367065 68.30431488 21.12231445 70.14508057 C21.1055706 89.45428862 20.73507301 108.70433344 20 128 C9.11 128 -1.78 128 -13 128 C-13.33 124.7 -13.66 121.4 -14 118 C-15.0725 118.886875 -16.145 119.77375 -17.25 120.6875 C-31.28660657 131.12244653 -49.17424934 132.62144052 -66.0625 130.3125 C-75.67430875 128.49439332 -84.11316803 125.04335088 -91 118 C-91 117.34 -91 116.68 -91 116 C-91.92425781 115.60941406 -91.92425781 115.60941406 -92.8671875 115.2109375 C-97.15644976 112.77564208 -98.45583776 107.87125178 -99.765625 103.3671875 C-101.82332364 93.68545161 -101.48021866 82.13326884 -97 73.125 C-87.1567464 58.11619058 -72.64309293 52.12376197 -55.68621826 48.50640869 C-50.61953652 47.49832636 -45.53570323 46.5913096 -40.44604492 45.70751953 C-37.77704027 45.24383966 -35.11014013 44.76925779 -32.44335938 44.29296875 C-30.73969309 43.99156647 -29.03592084 43.69076234 -27.33203125 43.390625 C-26.53835648 43.25005676 -25.7446817 43.10948853 -24.92695618 42.96466064 C-21.911598 42.44295795 -19.06654508 42 -16 42 C-16.02881911 35.7750727 -17.17724943 31.48843923 -21.19921875 26.66015625 C-24.15627169 23.93402284 -27.12440344 22.87679846 -31 22 C-32.85625 21.566875 -32.85625 21.566875 -34.75 21.125 C-41.96501212 20.45746935 -49.50930709 22.58595254 -55.4375 26.6875 C-59.84728268 30.35313185 -62.46679427 34.93358855 -65 40 C-69.87522748 39.26725038 -74.25262305 37.48358696 -78.8125 35.6875 C-79.58142578 35.39166016 -80.35035156 35.09582031 -81.14257812 34.79101562 C-86.25361154 32.79404645 -91.12459172 30.51831237 -96 28 C-95.01 25.03 -94.02 22.06 -93 19 C-92.34 19 -91.68 19 -91 19 C-90.89816406 18.25621094 -90.79632812 17.51242187 -90.69140625 16.74609375 C-88.87447501 9.52969454 -81.14203203 3.72757806 -75 0 C-74.34 0 -73.68 0 -73 0 C-72.67 -0.66 -72.34 -1.32 -72 -2 C-69.86629852 -2.91444349 -67.69077887 -3.73229117 -65.5 -4.5 C-63.72109375 -5.13421875 -63.72109375 -5.13421875 -61.90625 -5.78125 C-42.6275172 -12.02435657 -17.2723317 -11.69421802 0 0 Z M-32.6875 70.75 C-34.22567383 70.98589844 -34.22567383 70.98589844 -35.79492188 71.2265625 C-44.74567722 72.69668024 -55.07102522 74.7816893 -62 81 C-64.66340422 87.02160955 -64.10298777 92.02924403 -62.375 98.25 C-58.99845478 102.54742119 -54.48590395 104.16631873 -49.25 104.875 C-40.23109084 105.42326195 -32.05988334 103.83488075 -25 98 C-22.19381992 95.199326 -22.19381992 95.199326 -20 92 C-19.2575 91.05125 -18.515 90.1025 -17.75 89.125 C-14.46110648 83.30312799 -15.15615529 75.50386799 -15 69 C-21.01302006 68.7102159 -26.77875443 69.77310684 -32.6875 70.75 Z " fill="#194282" transform="translate(1134,526)"/>
<path d="M0 0 C0.78383057 0.00563965 1.56766113 0.0112793 2.37524414 0.01708984 C16.52193355 0.30895291 28.29009325 4.27941566 38.6875 14.0625 C53.65162176 29.95004066 53.47136938 51.18023771 53.4453125 71.62890625 C53.44598693 73.49551913 53.44695812 75.36213193 53.44821167 77.22874451 C53.44967879 81.11938319 53.44756372 85.00999878 53.44287109 88.90063477 C53.43713852 93.89769836 53.44048116 98.89470866 53.44644356 103.89177036 C53.45004542 107.73575752 53.44891294 111.57973188 53.44631577 115.42371941 C53.4456473 117.26780135 53.44647213 119.11188444 53.44879532 120.95596504 C53.45131953 123.51958462 53.44748622 126.08311559 53.44189453 128.64672852 C53.44391876 129.41288483 53.44594299 130.17904114 53.44802856 130.96841431 C53.42677023 136.19822977 53.42677023 136.19822977 52.3125 137.3125 C49.71890678 137.40101529 47.15210309 137.42775945 44.55859375 137.41015625 C43.78314713 137.4087413 43.0077005 137.40732635 42.20875549 137.40586853 C39.72246506 137.40025345 37.2362634 137.38769846 34.75 137.375 C33.06836067 137.36998694 31.38671994 137.3654237 29.70507812 137.36132812 C25.57418434 137.35027913 21.44335724 137.33300445 17.3125 137.3125 C16.3225 135.0025 15.3325 132.6925 14.3125 130.3125 C14.9725 130.3125 15.6325 130.3125 16.3125 130.3125 C16.22792643 120.67174443 16.13297767 111.03116199 16.02497292 101.39064026 C15.97513785 96.91361559 15.92880717 92.43661307 15.890625 87.95947266 C15.85361002 83.634586 15.80720712 79.30989055 15.75443649 74.98516846 C15.73597835 73.33949149 15.72083911 71.69377368 15.70915604 70.04803467 C15.69214565 67.73364906 15.66307725 65.41969321 15.63134766 63.10546875 C15.61802399 61.7908667 15.60470032 60.47626465 15.5909729 59.12182617 C15.0448752 51.65156877 13.32600275 43.01445231 7.6015625 37.734375 C0.84814604 32.77617051 -5.47177311 32.76802579 -13.6875 33.3125 C-18.76016466 34.40929236 -23.05646784 36.58060584 -26.6875 40.3125 C-31.23492909 47.5693729 -32.98151487 55.10940898 -33.00634766 63.63452148 C-33.02141609 64.83574394 -33.02141609 64.83574394 -33.03678894 66.06123352 C-33.0674657 68.68534687 -33.08461258 71.30935894 -33.1015625 73.93359375 C-33.12028665 75.76205813 -33.13986099 77.59051398 -33.1602478 79.41896057 C-33.21144329 84.21433471 -33.25113617 89.00973682 -33.28839111 93.80523682 C-33.33557259 99.56818583 -33.39711627 105.33099741 -33.45623779 111.09383392 C-33.54429656 119.83333342 -33.61417073 128.57280861 -33.6875 137.3125 C-45.5675 137.3125 -57.4475 137.3125 -69.6875 137.3125 C-70.7959855 125.11915951 -70.7959855 125.11915951 -70.6875 120 C-70.63881399 115.1636282 -70.76490798 110.37995499 -71.03689575 105.55184937 C-71.86228803 90.59794273 -71.84110169 75.64523537 -71.81787109 60.67431641 C-71.81207996 56.88857101 -71.81552956 53.10289509 -71.82144356 49.31715202 C-71.82505088 46.37122061 -71.82391141 43.42530584 -71.82131577 40.47937393 C-71.82065182 39.08155433 -71.8214562 37.68373318 -71.82379532 36.28591537 C-71.82633484 34.34930196 -71.82177791 32.41268315 -71.81689453 30.47607422 C-71.81609894 29.37883026 -71.81530334 28.2815863 -71.81448364 27.15109253 C-71.7040107 24.68158022 -71.37127712 22.67061017 -70.6875 20.3125 C-70.54820644 18.94573368 -70.44384699 17.5750433 -70.37109375 16.203125 C-70.30825195 15.07197266 -70.30825195 15.07197266 -70.24414062 13.91796875 C-70.20482422 13.14066406 -70.16550781 12.36335937 -70.125 11.5625 C-70.08181641 10.76972656 -70.03863281 9.97695313 -69.99414062 9.16015625 C-69.88847009 7.21112185 -69.78752034 5.26183252 -69.6875 3.3125 C-65.00610746 3.28784712 -60.32475241 3.26966261 -55.64331055 3.25756836 C-54.04955386 3.25252843 -52.45580181 3.2456965 -50.86206055 3.23706055 C-48.57599747 3.22498001 -46.28999533 3.21926845 -44.00390625 3.21484375 C-43.28723282 3.20968246 -42.57055939 3.20452118 -41.83216858 3.19920349 C-40.11686328 3.19900737 -38.40168734 3.25057993 -36.6875 3.3125 C-35.02407163 4.97592837 -35.32701903 7.0950709 -35.125 9.375 C-35.04121094 10.29410156 -34.95742187 11.21320312 -34.87109375 12.16015625 C-34.81050781 12.87042969 -34.74992187 13.58070313 -34.6875 14.3125 C-34.22601562 13.86519531 -33.76453125 13.41789063 -33.2890625 12.95703125 C-23.67931623 4.04997393 -13.05877089 -0.09943587 0 0 Z " fill="#184281" transform="translate(1249.6875,516.6875)"/>
<path d="M0 0 C5.10863896 -0.0246501 10.21724359 -0.04283607 15.32592773 -0.05493164 C17.06519168 -0.05997204 18.80445136 -0.0668043 20.54370117 -0.07543945 C23.03825937 -0.08751792 25.53276173 -0.09323108 28.02734375 -0.09765625 C28.80963852 -0.10281754 29.59193329 -0.10797882 30.39793396 -0.11329651 C32.26567114 -0.11349226 34.13329204 -0.06199694 36 0 C37 1 37 1 37.11352539 3.89352417 C37.10828857 5.19049225 37.10305176 6.48746033 37.09765625 7.82373047 C37.09619598 8.53772507 37.09473572 9.25171967 37.0932312 9.98735046 C37.08941459 11.54464274 37.083287 13.10193062 37.07516479 14.65920639 C37.06242224 17.1322796 37.05588936 19.60529922 37.05102539 22.07839966 C37.03763435 28.2309035 37.01361576 34.38335755 36.98962402 40.53582764 C36.9697804 45.71776173 36.95417615 50.89967584 36.94406128 56.08163834 C36.93763816 58.50261242 36.92512178 60.92350425 36.91235352 63.3444519 C36.67067902 82.89283884 36.67067902 82.89283884 45.3125 99.9375 C50.87482804 104.20626338 56.49668903 105.61458755 63.484375 105.3359375 C70.00106791 104.4656959 74.57078291 101.97195727 78.875 97 C86.12303975 86.35605009 85.46715363 73.68361876 85.51171875 61.328125 C85.52859765 59.55164373 85.54675212 57.77517418 85.56611633 55.99871826 C85.6132742 51.3628709 85.64330353 46.72707103 85.66955566 42.09106445 C85.70482277 36.50734647 85.76173647 30.92381074 85.81494904 25.34024048 C85.89306094 16.89351805 85.94396985 8.44702757 86 0 C97.88 0 109.76 0 122 0 C122.02254661 17.32377655 122.04097893 34.64754065 122.05181217 51.97132778 C122.05697523 60.01450054 122.06401812 68.05766357 122.07543945 76.10083008 C122.08538598 83.1087296 122.09185335 90.11662208 122.09408849 97.12452847 C122.09539566 100.83743192 122.09848184 104.5503152 122.10573006 108.2632122 C122.11374332 112.40131411 122.11399116 116.53938061 122.11352539 120.67749023 C122.11712067 121.91754318 122.12071594 123.15759613 122.12442017 124.43522644 C122.1230455 125.55568359 122.12167084 126.67614075 122.12025452 127.83055115 C122.12117631 128.81041709 122.1220981 129.79028303 122.12304783 130.79984188 C122 133 122 133 121 134 C118.63601532 134.1007812 116.30188689 134.13973215 113.9375 134.1328125 C113.23101318 134.13376923 112.52452637 134.13472595 111.79663086 134.13571167 C110.30029207 134.13639333 108.80395033 134.13454005 107.30761719 134.13037109 C105.00969843 134.12502257 102.71197514 134.13031651 100.4140625 134.13671875 C98.96354123 134.13605797 97.51302009 134.1347768 96.0625 134.1328125 C95.0250061 134.13584885 95.0250061 134.13584885 93.96655273 134.13894653 C89.11495224 134.11495224 89.11495224 134.11495224 88 133 C87.54540142 130.34536879 87.29756762 127.67810862 87 125 C86.38125 125.556875 85.7625 126.11375 85.125 126.6875 C71.56371314 136.72285228 55.15846873 138.06346805 38.79882812 135.67919922 C31.84610731 134.21500034 25.64804386 131.26102424 20 127 C19.09507813 126.35611328 19.09507813 126.35611328 18.171875 125.69921875 C13.08471782 121.77326049 9.72485586 116.79905222 7 111 C7 110.01 7 109.02 7 108 C6.34 108 5.68 108 5 108 C4.34276277 105.87849937 3.69985978 103.75255686 3.0625 101.625 C2.70285156 100.44164062 2.34320312 99.25828125 1.97265625 98.0390625 C-0.85563769 87.20546124 -0.13039263 75.74924795 -0.09765625 64.6484375 C-0.09578824 62.7794295 -0.09436615 60.91042102 -0.09336853 59.04141235 C-0.08957347 54.15230935 -0.0797693 49.26323665 -0.06866455 44.37414551 C-0.05838529 39.37313242 -0.05385702 34.37211438 -0.04882812 29.37109375 C-0.03814398 19.58071595 -0.02110425 9.79036051 0 0 Z " fill="#194181" transform="translate(1625,520)"/>
<path d="M0 0 C1.51815699 0.00015911 3.0363194 0.00585313 4.55444336 0.01586914 C5.35208603 0.01728409 6.1497287 0.01869904 6.97154236 0.02015686 C9.52916146 0.02577223 12.08669429 0.03832727 14.64428711 0.05102539 C16.37410356 0.05603841 18.10392137 0.06060166 19.83374023 0.06469727 C24.08312264 0.07574664 28.33244023 0.09302153 32.58178711 0.11352539 C32.58178711 1.10352539 32.58178711 2.09352539 32.58178711 3.11352539 C33.57178711 3.11352539 34.56178711 3.11352539 35.58178711 3.11352539 C35.58178711 16.97352539 35.58178711 30.83352539 35.58178711 45.11352539 C35.25178711 45.11352539 34.92178711 45.11352539 34.58178711 45.11352539 C34.08678711 34.71852539 34.08678711 34.71852539 33.58178711 24.11352539 C33.57147964 26.10326889 33.56117218 28.09301239 33.55055237 30.14305115 C33.45318892 48.84699542 33.35036121 67.55090388 33.24244785 86.25479031 C33.18709417 95.87183333 33.13360871 105.48888006 33.08447266 115.10595703 C33.04165703 123.48506039 32.99538577 131.86413619 32.94490856 140.24319702 C32.91828642 144.68267046 32.89343291 149.12213836 32.87271309 153.5616436 C32.85317942 157.73532491 32.82904566 161.90895367 32.80129623 166.0825882 C32.79190841 167.61892559 32.7842394 169.15527455 32.778368 170.69162941 C32.77013607 172.78014984 32.755868 174.8685417 32.74000549 176.95701599 C32.73355294 178.12861487 32.72710039 179.30021376 32.72045231 180.50731564 C32.58178711 183.11352539 32.58178711 183.11352539 31.58178711 184.11352539 C28.98819389 184.20204068 26.4213902 184.22878484 23.82788086 184.21118164 C23.05243423 184.20976669 22.27698761 184.20835175 21.4780426 184.20689392 C18.99175217 184.20127884 16.50555051 184.18872385 14.01928711 184.17602539 C12.33764778 184.17101233 10.65600705 184.16644909 8.97436523 184.16235352 C4.84347145 184.15130452 0.71264435 184.13402984 -3.41821289 184.11352539 C-4.79304213 181.3638669 -4.58895868 179.11694027 -4.6394043 176.0378418 C-4.66252686 174.73545563 -4.68564941 173.43306946 -4.70947266 172.09121704 C-4.72990666 170.63251195 -4.74999496 169.17380199 -4.76977539 167.71508789 C-4.79348117 166.17442616 -4.81732937 164.63376662 -4.84130859 163.09310913 C-4.90468756 158.86284954 -4.95928286 154.63251957 -5.01074982 150.40209961 C-5.04313968 147.74453233 -5.0771868 145.08698943 -5.11126709 142.42944336 C-5.49772483 111.4497872 -5.38920254 80.47918348 -5.07714081 49.49925995 C-5.0431161 46.10386675 -5.01077487 42.70846027 -4.97857666 39.31304932 C-4.92676809 33.95460913 -4.86860195 28.59627566 -4.80484009 23.23796463 C-4.78159404 21.2494941 -4.75980816 19.26100593 -4.73953247 17.2725029 C-4.71105737 14.5553603 -4.67622461 11.83837842 -4.6394043 9.12133789 C-4.63208094 8.31694086 -4.62475758 7.51254383 -4.6172123 6.68377113 C-4.51602002 0.14998567 -4.51602002 0.14998567 0 0 Z M33.58178711 7.11352539 C33.58178711 8.76352539 33.58178711 10.41352539 33.58178711 12.11352539 C33.91178711 12.11352539 34.24178711 12.11352539 34.58178711 12.11352539 C34.58178711 10.46352539 34.58178711 8.81352539 34.58178711 7.11352539 C34.25178711 7.11352539 33.92178711 7.11352539 33.58178711 7.11352539 Z " fill="#194282" transform="translate(1777.418212890625,469.886474609375)"/>
<path d="M0 0 C0.99 0 1.98 0 3 0 C3 0.99 3 1.98 3 3 C3.99 3 4.98 3 6 3 C6 16.86 6 30.72 6 45 C5.67 45 5.34 45 5 45 C4.67 38.07 4.34 31.14 4 24 C3.98969254 25.9897435 3.97938507 27.979487 3.96876526 30.02952576 C3.87140181 48.73347003 3.7685741 67.43737849 3.66066074 86.14126492 C3.60530706 95.75830794 3.5518216 105.37535467 3.50268555 114.99243164 C3.45986992 123.371535 3.41359866 131.7506108 3.36312145 140.12967163 C3.33649931 144.56914507 3.3116458 149.00861297 3.29092598 153.44811821 C3.27139231 157.62179952 3.24725855 161.79542828 3.21950912 165.96906281 C3.2101213 167.5054002 3.20245229 169.04174916 3.19658089 170.57810402 C3.18834896 172.66662445 3.17408089 174.75501631 3.15821838 176.8434906 C3.15176583 178.01508948 3.14531328 179.18668837 3.1386652 180.39379025 C3 183 3 183 2 184 C-0.35313555 184.07271741 -2.70833668 184.08370868 -5.0625 184.0625 C-6.35285156 184.05347656 -7.64320312 184.04445313 -8.97265625 184.03515625 C-10.47119141 184.01775391 -10.47119141 184.01775391 -12 184 C-12 183.67 -12 183.34 -12 183 C-8.04 183 -4.08 183 0 183 C0 123.6 0 64.2 0 3 C-0.66 2.67 -1.32 2.34 -2 2 C-1.34 2 -0.68 2 0 2 C0 1.34 0 0.68 0 0 Z M4 7 C4 8.65 4 10.3 4 12 C4.33 12 4.66 12 5 12 C5 10.35 5 8.7 5 7 C4.67 7 4.34 7 4 7 Z " fill="#295290" transform="translate(1807,470)"/>
<path d="M0 0 C0 0.66 0 1.32 0 2 C-0.55534424 2.1043335 -1.11068848 2.20866699 -1.68286133 2.31616211 C-13.79576745 4.64457156 -25.5452124 7.58972729 -37.25 11.5 C-38.35448486 11.86730225 -39.45896973 12.23460449 -40.59692383 12.61303711 C-46.71340615 14.7060895 -52.59959484 17.07236251 -58.45410156 19.8125 C-60.78027594 20.89751268 -63.12042051 21.92251403 -65.484375 22.921875 C-74.29092877 26.67917582 -82.55404637 30.8337986 -90.66796875 35.921875 C-93.03523258 37.39829277 -95.39497415 38.80338923 -97.82421875 40.16796875 C-100.45982191 41.68838435 -101.95912222 42.86635505 -104 45 C-104.74636719 45.43957031 -105.49273437 45.87914062 -106.26171875 46.33203125 C-117.1763667 52.98046873 -127.8139457 62.44548275 -135 73 C-135.66 73 -136.32 73 -137 73 C-137.24878906 73.54140625 -137.49757813 74.0828125 -137.75390625 74.640625 C-139.27320815 77.51729694 -141.05366165 80.09789238 -142.9375 82.75 C-143.62714844 83.73484375 -144.31679688 84.7196875 -145.02734375 85.734375 C-145.67832031 86.48203125 -146.32929688 87.2296875 -147 88 C-147.99 88 -148.98 88 -150 88 C-148.72633678 83.43604012 -146.98207247 80.63440083 -144 77 C-143.5359375 75.63875 -143.5359375 75.63875 -143.0625 74.25 C-142.711875 73.5075 -142.36125 72.765 -142 72 C-140.34178227 71.62690101 -138.67422986 71.29299023 -137 71 C-136.29970037 69.68402027 -135.63926454 68.34668596 -135 67 C-133.87695108 65.54851225 -132.70778017 64.1317824 -131.5 62.75 C-130.58734375 61.69039063 -130.58734375 61.69039063 -129.65625 60.609375 C-128 59 -128 59 -126 59 C-125.34 57.68 -124.68 56.36 -124 55 C-123.34 55 -122.68 55 -122 55 C-122 54.34 -122 53.68 -122 53 C-119.74338671 51.18568291 -117.48246781 49.48681879 -115.125 47.8125 C-114.43825195 47.31854736 -113.75150391 46.82459473 -113.04394531 46.31567383 C-111.66392299 45.32497566 -110.28178191 44.33722171 -108.89746094 43.35253906 C-107.31193416 42.22235142 -105.73669354 41.07775148 -104.1640625 39.9296875 C-98.37026283 35.74840165 -92.34639628 32.27408016 -86 29 C-84.81664062 28.38705078 -84.81664062 28.38705078 -83.609375 27.76171875 C-81.08619801 26.47924303 -78.54530183 25.23795885 -76 24 C-75.02933594 23.51144531 -74.05867188 23.02289063 -73.05859375 22.51953125 C-51.50285315 12.00392662 -24.44473506 -0.5820175 0 0 Z " fill="#81B4D5" transform="translate(569,409)"/>
<path d="M0 0 C0.99 0.99 0.99 0.99 2 2 C-8.40756529 8.03638787 -19.94772451 9.0500972 -31.6875 10.4375 C-53.62830087 13.06154145 -73.84153963 18.62282568 -94.25 27.125 C-95.37438477 27.59341309 -95.37438477 27.59341309 -96.52148438 28.07128906 C-107.01532816 32.57603221 -116.51390092 38.69891383 -126 45 C-126.9178125 45.60457031 -127.835625 46.20914063 -128.78125 46.83203125 C-141.27524403 55.46869279 -153.12801967 66.83915891 -162.66796875 78.64453125 C-163.10753906 79.09183594 -163.54710937 79.53914063 -164 80 C-164.66 80 -165.32 80 -166 80 C-166.226875 80.67417969 -166.45375 81.34835937 -166.6875 82.04296875 C-168.3636893 85.81938334 -170.59104541 88.97093585 -173 92.3125 C-173.45117188 92.95767578 -173.90234375 93.60285156 -174.3671875 94.26757812 C-175.52420937 95.88501255 -176.75666577 97.44793244 -178 99 C-178.66 99 -179.32 99 -180 99 C-180.268125 99.928125 -180.53625 100.85625 -180.8125 101.8125 C-181.91148371 104.76240366 -182.62418561 106.05615186 -185 108 C-183.46197215 102.15549417 -180.5439162 96.87288478 -177 92 C-176.34 92 -175.68 92 -175 92 C-174.60748047 90.9171875 -174.60748047 90.9171875 -174.20703125 89.8125 C-171.2609663 82.94788264 -166.38037182 77.10445532 -161 72 C-160.05370245 70.88238996 -159.11686642 69.75672846 -158.1875 68.625 C-154.80267881 64.64185183 -150.9916332 61.36000446 -147 58 C-145.98223562 57.12075995 -144.96537039 56.24047843 -143.94921875 55.359375 C-136.03687898 48.53181995 -128.00755211 42.02628124 -118.79296875 37.0078125 C-117.52181884 36.29330994 -116.27602641 35.53282666 -115.05078125 34.7421875 C-100.05640367 25.16462695 -82.97025714 19.04073871 -66 14 C-65.3203418 13.79536133 -64.64068359 13.59072266 -63.94042969 13.37988281 C-52.45841765 10.02828174 -40.60295551 8.81614513 -28.74487305 7.56958008 C-13.67314279 5.99000533 -13.67314279 5.99000533 0 0 Z " fill="#5084B4" transform="translate(607,382)"/>
<path d="M0 0 C1.25180279 4.21919103 0.67252421 7.96088565 0.0625 12.25 C-0.08735352 13.36761719 -0.08735352 13.36761719 -0.24023438 14.5078125 C-0.48680156 16.33945442 -0.74250391 18.16986251 -1 20 C-1.66 20 -2.32 20 -3 20 C-3.061875 21.051875 -3.12375 22.10375 -3.1875 23.1875 C-4.11264344 30.79272329 -7.47608136 38.24718846 -11 45 C-11.66 45 -12.32 45 -13 45 C-13.28875 45.721875 -13.5775 46.44375 -13.875 47.1875 C-14.431875 48.5796875 -14.431875 48.5796875 -15 50 C-15.226875 50.804375 -15.45375 51.60875 -15.6875 52.4375 C-17.31067383 55.60655368 -19.35319257 57.13889933 -22.09375 59.3515625 C-24.01253752 61.01084187 -25.56585456 62.73993563 -27.1875 64.6875 C-43.19799164 83.31339204 -64.70422571 95.92905329 -86.75 106.125 C-88.03741089 106.7296106 -88.03741089 106.7296106 -89.35083008 107.34643555 C-90.1580249 107.70906494 -90.96521973 108.07169434 -91.796875 108.4453125 C-92.51198242 108.77031738 -93.22708984 109.09532227 -93.96386719 109.43017578 C-96.35242181 110.0986274 -97.68252369 109.79659177 -100 109 C-99.360625 108.87625 -98.72125 108.7525 -98.0625 108.625 C-97.0415625 108.315625 -97.0415625 108.315625 -96 108 C-95.505 107.01 -95.505 107.01 -95 106 C-93.27734375 105.2109375 -93.27734375 105.2109375 -90.9375 104.375 C-80.12611299 100.20843394 -69.80716124 94.87320463 -60.234375 88.34765625 C-58.10818407 87.06525088 -56.42651089 86.43966596 -54 86 C-54 85.34 -54 84.68 -54 84 C-52.33768449 82.66953869 -50.61629913 81.41277445 -48.875 80.1875 C-43.78842933 76.50699838 -39.09571079 72.52631071 -34.5 68.25 C-33.91331543 67.70754639 -33.32663086 67.16509277 -32.72216797 66.60620117 C-30.16720112 64.20285017 -27.89910874 61.87215834 -25.71875 59.109375 C-24.86796875 58.06523438 -24.86796875 58.06523438 -24 57 C-23.34 57 -22.68 57 -22 57 C-21.73960937 56.28199219 -21.47921875 55.56398438 -21.2109375 54.82421875 C-19.94888967 51.88079751 -18.41775419 49.46248818 -16.625 46.8125 C-9.69111129 36.05994794 -6.0716713 23.61322822 -3.50390625 11.14453125 C-2.61076672 7.34349556 -1.30383938 3.67682706 0 0 Z " fill="#4E82AF" transform="translate(690,562)"/>
<path d="M0 0 C0.99 0.495 0.99 0.495 2 1 C0.44555348 2.46691458 -1.11892175 3.92320641 -2.6875 5.375 C-3.55761719 6.18710937 -4.42773438 6.99921875 -5.32421875 7.8359375 C-9.72097521 11.3918544 -14.55315873 12.52495195 -19.9375 14.0625 C-21.71447266 14.57490234 -21.71447266 14.57490234 -23.52734375 15.09765625 C-40.50413645 19.50894884 -58.36650257 17.19966193 -75.26416016 13.58203125 C-78.1127242 12.9760187 -80.96663604 12.40561545 -83.82421875 11.84375 C-88.55324706 10.9137173 -93.27756342 9.96292633 -98 9 C-98 8.67 -98 8.34 -98 8 C-91.02033878 7.72963596 -85.06602604 8.68277117 -78.3125 10.375 C-55.19249784 15.85970013 -31.9190305 18.49301043 -10 7 C-6.54752059 4.81206509 -3.24160816 2.48857972 0 0 Z " fill="#5484B0" transform="translate(644,695)"/>
<path d="M0 0 C1.27875 0.28875 2.5575 0.5775 3.875 0.875 C5.58105378 1.26023795 7.29001548 1.63260279 9 2 C9.7130127 2.16612793 10.42602539 2.33225586 11.16064453 2.50341797 C17.52418168 3.90675002 23.61583647 4.38328278 30.125 4.375 C31.12112305 4.37701416 32.11724609 4.37902832 33.14355469 4.38110352 C40.86178321 4.27621604 47.66025779 3.04346829 55.015625 0.77734375 C58 0 58 0 61 1 C60 3 60 3 57.38671875 4.0703125 C40.58368176 8.8610411 17.20477276 10.90412244 1 3 C0.67 2.01 0.34 1.02 0 0 Z " fill="#1A3B73" transform="translate(1361,701)"/>
<path d="M0 0 C0 0.66 0 1.32 0 2 C-16.90905147 5.90063225 -33.59786756 8.56236694 -51 8 C-51.33 7.34 -51.66 6.68 -52 6 C-50.73736328 5.96132813 -50.73736328 5.96132813 -49.44921875 5.921875 C-40.10178502 5.49478561 -30.94301762 4.37901743 -21.6875 3 C-20.48891357 2.82178711 -19.29032715 2.64357422 -18.05541992 2.45996094 C-1.71010265 -0.03800228 -1.71010265 -0.03800228 0 0 Z " fill="#81B1D0" transform="translate(575,838)"/>
<path d="M0 0 C0.66 0.33 1.32 0.66 2 1 C2 4.63 2 8.26 2 12 C11.57 12 21.14 12 31 12 C30.67 12.66 30.34 13.32 30 14 C25.74585377 14.02465622 21.49174502 14.04283899 17.23754883 14.05493164 C15.78929927 14.05997101 14.34105483 14.06680253 12.89282227 14.07543945 C10.81525412 14.08752247 8.73775303 14.09323211 6.66015625 14.09765625 C5.40855713 14.10289307 4.15695801 14.10812988 2.86743164 14.11352539 C0 14 0 14 -1 13 C-1.45459858 10.34536879 -1.70243238 7.67810862 -2 5 C-2.99 5.99 -3.98 6.98 -5 8 C-5.66 7.67 -6.32 7.34 -7 7 C-4.69 4.69 -2.38 2.38 0 0 Z " fill="#1D3E73" transform="translate(1714,640)"/>
<path d="M0 0 C1.02717488 3.08152464 1.0119573 4.92019914 0.875 8.125 C0.81110155 12.94294297 1.57278675 16.66479625 3.34375 21.125 C4 23 4 23 4 26 C0.50056733 26.33947025 -2.99962052 26.67044773 -6.5 27 C-7.48226563 27.09539063 -8.46453125 27.19078125 -9.4765625 27.2890625 C-15.01398367 27.80588848 -20.43881298 28.10592737 -26 28 C-22.8218182 26.16240929 -20.22318322 25.65069203 -16.578125 25.3671875 C-15.04091797 25.24150391 -15.04091797 25.24150391 -13.47265625 25.11328125 C-11.87744141 24.99533203 -11.87744141 24.99533203 -10.25 24.875 C-9.17105469 24.78863281 -8.09210938 24.70226562 -6.98046875 24.61328125 C-4.32080344 24.4014495 -1.66077581 24.19730598 1 24 C0.505 21.525 0.505 21.525 0 19 C-0.66 19 -1.32 19 -2 19 C-2.19406478 17.35492782 -2.38007935 15.70890406 -2.5625 14.0625 C-2.66691406 13.14597656 -2.77132812 12.22945312 -2.87890625 11.28515625 C-2.91886719 10.53105469 -2.95882812 9.77695312 -3 9 C-2.67 8.67 -2.34 8.34 -2 8 C-1.835 6.845 -1.67 5.69 -1.5 4.5 C-1 1 -1 1 0 0 Z " fill="#5685B3" transform="translate(518,724)"/>
<path d="M0 0 C-1.35236577 2.93879484 -2.89942659 5.29232911 -5 7.75 C-5.515625 8.36359375 -6.03125 8.9771875 -6.5625 9.609375 C-8 11 -8 11 -10 11 C-10.226875 11.67417969 -10.45375 12.34835937 -10.6875 13.04296875 C-12.3636893 16.81938334 -14.59104541 19.97093585 -17 23.3125 C-17.67675781 24.28026367 -17.67675781 24.28026367 -18.3671875 25.26757812 C-19.52420937 26.88501255 -20.75666577 28.44793244 -22 30 C-22.66 30 -23.32 30 -24 30 C-24.268125 30.928125 -24.53625 31.85625 -24.8125 32.8125 C-25.91148371 35.76240366 -26.62418561 37.05615186 -29 39 C-27.46197215 33.15549417 -24.5439162 27.87288478 -21 23 C-20.34 23 -19.68 23 -19 23 C-18.73832031 22.278125 -18.47664063 21.55625 -18.20703125 20.8125 C-15.27851003 13.98876124 -10.44818766 7.99417202 -5 3 C-4.443125 2.401875 -3.88625 1.80375 -3.3125 1.1875 C-2 0 -2 0 0 0 Z " fill="#6192BE" transform="translate(451,451)"/>
<path d="M0 0 C1.26972656 0.28875 2.53945312 0.5775 3.84765625 0.875 C17.13421558 3.78451285 29.43519956 5.2146613 43 3 C39.87871619 6.41854894 37.74764266 6.9616215 33.04296875 7.203125 C21.83539253 7.38100458 11.72685282 6.57561761 1 3 C0.67 2.01 0.34 1.02 0 0 Z " fill="#1A3B74" transform="translate(1360,642)"/>
<path d="M0 0 C-0.95023821 2.55833365 -1.87109415 4.81179036 -3.41796875 7.0703125 C-5.99353142 11.83987299 -6.89446827 17.06027361 -8.10546875 22.31445312 C-8.40904297 23.55678711 -8.40904297 23.55678711 -8.71875 24.82421875 C-8.89341797 25.57791748 -9.06808594 26.33161621 -9.24804688 27.1081543 C-10 29 -10 29 -13 31 C-12.14812527 23.50937741 -10.38536762 16.463177 -8.0625 9.3125 C-7.80968262 8.51021973 -7.55686523 7.70793945 -7.29638672 6.88134766 C-6.62673518 4.88613829 -5.82296845 2.93701226 -5 1 C-2 0 -2 0 0 0 Z " fill="#4B82B5" transform="translate(414,513)"/>
<path d="M0 0 C0.77859375 0.20496094 1.5571875 0.40992188 2.359375 0.62109375 C12.89910638 3.15888621 23.19703109 3.68482284 34 4 C34 4.66 34 5.32 34 6 C30.37515827 6.08837761 26.75059983 6.14084706 23.125 6.1875 C21.60519531 6.22520508 21.60519531 6.22520508 20.0546875 6.26367188 C13.49266936 6.3267682 6.96565735 6.0251383 1 3 C0.67 2.01 0.34 1.02 0 0 Z " fill="#1A3B74" transform="translate(1655,650)"/>
<path d="M0 0 C-0.33 0.66 -0.66 1.32 -1 2 C-3.22265625 2.4921875 -3.22265625 2.4921875 -6.0625 2.875 C-11.2133535 3.76906006 -15.89761703 4.59034398 -20 8 C-21.78239695 10.53991565 -23.26428868 13.09314948 -24.67578125 15.85546875 C-26 18 -26 18 -29 19 C-28.21389468 12.72222937 -24.5071275 9.17905236 -20 5 C-13.74270102 0.72359641 -7.49401382 -0.1784289 0 0 Z " fill="#497CAB" transform="translate(547,702)"/>
<path d="M0 0 C1.25180279 4.21919103 0.67252421 7.96088565 0.0625 12.25 C-0.08735352 13.36761719 -0.08735352 13.36761719 -0.24023438 14.5078125 C-0.48680156 16.33945442 -0.74250391 18.16986251 -1 20 C-1.66 20 -2.32 20 -3 20 C-3.12375 20.639375 -3.2475 21.27875 -3.375 21.9375 C-3.58125 22.618125 -3.7875 23.29875 -4 24 C-4.66 24.33 -5.32 24.66 -6 25 C-5.7168444 22.91549283 -5.42314331 20.83241633 -5.125 18.75 C-4.96257813 17.58984375 -4.80015625 16.4296875 -4.6328125 15.234375 C-4.07144159 12.36514593 -3.3699383 10.52582375 -2 8 C-1.5845535 6.59466244 -1.20799564 5.17712415 -0.875 3.75 C-0.441875 1.89375 -0.441875 1.89375 0 0 Z " fill="#5D95BE" transform="translate(690,562)"/>
<path d="M0 0 C0.94137255 2.82411765 1.11725382 4.52918032 1.09765625 7.44921875 C1.09282227 8.72055664 1.09282227 8.72055664 1.08789062 10.01757812 C1.07951172 10.89865234 1.07113281 11.77972656 1.0625 12.6875 C1.05798828 13.58017578 1.05347656 14.47285156 1.04882812 15.39257812 C1.03704983 17.59511987 1.02060164 19.79752599 1 22 C0.67 21.01 0.34 20.02 0 19 C-0.66 19 -1.32 19 -2 19 C-2.19406478 17.35492782 -2.38007935 15.70890406 -2.5625 14.0625 C-2.66691406 13.14597656 -2.77132812 12.22945312 -2.87890625 11.28515625 C-2.91886719 10.53105469 -2.95882812 9.77695312 -3 9 C-2.67 8.67 -2.34 8.34 -2 8 C-1.835 6.845 -1.67 5.69 -1.5 4.5 C-1 1 -1 1 0 0 Z " fill="#4E84B2" transform="translate(518,724)"/>
<path d="M0 0 C0.66 0 1.32 0 2 0 C0.64763423 2.93879484 -0.89942659 5.29232911 -3 7.75 C-3.515625 8.36359375 -4.03125 8.9771875 -4.5625 9.609375 C-6 11 -6 11 -8 11 C-8.4021875 12.2065625 -8.4021875 12.2065625 -8.8125 13.4375 C-9.4003125 14.7059375 -9.4003125 14.7059375 -10 16 C-10.99 16.33 -11.98 16.66 -13 17 C-11.5854292 12.4990929 -9.38169453 10.22798114 -6 7 C-4.41809752 5.13825237 -2.86754228 3.25561301 -1.33203125 1.35546875 C-0.89246094 0.90816406 -0.45289063 0.46085937 0 0 Z " fill="#598CBA" transform="translate(449,451)"/>
<path d="M0 0 C0.66 0.33 1.32 0.66 2 1 C0.44555348 2.46691458 -1.11892175 3.92320641 -2.6875 5.375 C-3.55761719 6.18710937 -4.42773438 6.99921875 -5.32421875 7.8359375 C-9.61180646 11.30356318 -13.60464902 12.24716033 -19 13 C-19 12.34 -19 11.68 -19 11 C-18.04738281 10.54109375 -17.09476563 10.0821875 -16.11328125 9.609375 C-14.84619428 8.98991026 -13.5792761 8.37010019 -12.3125 7.75 C-11.68666016 7.44964844 -11.06082031 7.14929688 -10.41601562 6.83984375 C-6.54561174 4.93503765 -3.2880939 2.84171786 0 0 Z " fill="#5C8EB8" transform="translate(644,695)"/>
<path d="M0 0 C0 0.66 0 1.32 0 2 C-2.65778421 3.35396554 -5.32310393 4.68459254 -8 6 C-8.93714844 6.46664062 -9.87429688 6.93328125 -10.83984375 7.4140625 C-11.80019531 7.87554688 -12.76054688 8.33703125 -13.75 8.8125 C-14.65234375 9.25207031 -15.5546875 9.69164062 -16.484375 10.14453125 C-19.20095562 11.06833739 -20.36055591 11.00520885 -23 10 C-22.360625 9.87625 -21.72125 9.7525 -21.0625 9.625 C-20.381875 9.41875 -19.70125 9.2125 -19 9 C-18.67 8.34 -18.34 7.68 -18 7 C-15.92578125 6.03515625 -15.92578125 6.03515625 -13.3125 5.0625 C-10.27036206 3.90048165 -7.41951538 2.70975769 -4.5 1.25 C-2 0 -2 0 0 0 Z " fill="#5D8FBA" transform="translate(613,661)"/>
<path d="M0 0 C0.66 0.33 1.32 0.66 2 1 C-1.06679465 4.42409111 -4.11716523 6.27342685 -8.25 8.25 C-9.32765625 8.77078125 -10.4053125 9.2915625 -11.515625 9.828125 C-12.33546875 10.21484375 -13.1553125 10.6015625 -14 11 C-12.64084464 6.92253393 -10.70703144 6.42960469 -7 4.375 C-3.28283814 2.49255718 -3.28283814 2.49255718 0 0 Z " fill="#5588B2" transform="translate(627,652)"/>
<path d="M0 0 C2.5654594 2.5654594 2.54046087 4.47686668 3 8 C-0.3 8 -3.6 8 -7 8 C-3 6 -3 6 0 6 C0 4.02 0 2.04 0 0 Z " fill="#6498C0" transform="translate(519,742)"/>
<path d="M0 0 C1.2196618 4.16174675 1.18890785 7.82107764 0 12 C-2.0625 14 -2.0625 14 -4 15 C-3.32584613 9.7415998 -1.75734451 4.97361654 0 0 Z " fill="#6DA2C8" transform="translate(690,562)"/>
<path d="M0 0 C0.33 0 0.66 0 1 0 C1.95261487 4.76307437 2.08333357 9.1666528 2 14 C1.67 13.01 1.34 12.02 1 11 C0.34 11 -0.32 11 -1 11 C-0.67 7.37 -0.34 3.74 0 0 Z " fill="#558BB8" transform="translate(517,732)"/>
<path d="M0 0 C0.66 0.33 1.32 0.66 2 1 C-0.97 3.64 -3.94 6.28 -7 9 C-7.33 8.01 -7.66 7.02 -8 6 C-5.36 4.02 -2.72 2.04 0 0 Z " fill="#6898C1" transform="translate(644,695)"/>
<path d="M0 0 C1 4 1 4 1 4 Z " fill="#676A9F" transform="translate(1812,631)"/>
<path d="" fill="#656A9E" transform="translate(0,0)"/>
<path d="" fill="#656A9E" transform="translate(0,0)"/>
<path d="" fill="#676C9D" transform="translate(0,0)"/>
<path d="" fill="#696BA0" transform="translate(0,0)"/>
<path d="" fill="#666D9E" transform="translate(0,0)"/>
<path d="" fill="#6B6DA1" transform="translate(0,0)"/>
</svg>
