<svg xmlns="http://www.w3.org/2000/svg" viewBox="0 0 512 512" width="100%" height="100%" fill="none">
  <defs>
    <linearGradient id="opt8Bg" x1="0%" y1="0%" x2="100%" y2="100%">
      <stop offset="0%" stop-color="#0D47A1" />
      <stop offset="50%" stop-color="#1976D2" />
      <stop offset="100%" stop-color="#90CAF9" />
    </linearGradient>
  </defs>
  <rect width="512" height="512" rx="128" fill="url(#opt8Bg)" />
  <!-- Circle backdrop -->
  <circle cx="256" cy="256" r="175" stroke="#ffffff" stroke-width="6" opacity="0.3" fill="none" />
  <!-- Dove Wings / Embracing Wings -->
  <path d="M 140 280 C 140 180, 256 140, 256 240 C 256 140, 372 180, 372 280 C 320 340, 256 360, 256 360 C 256 360, 192 340, 140 280 Z" fill="#ffffff" opacity="0.95" />
  <!-- Inner Heart Note -->
  <path d="M 256 220 C 240 195, 205 195, 195 220 C 185 245, 210 275, 256 310 C 302 275, 327 245, 317 220 C 307 195, 272 195, 256 220 Z" fill="#90CAF9" />
</svg>
